<svg xmlns="http://www.w3.org/2000/svg" viewBox="0 0 800 560" width="800" height="560">
<rect width="800" height="560" fill="none"/>
<ellipse cx="400.0" cy="476" rx="160" ry="14" fill="#1c2128"/>
<line x1="400.0" y1="470.0" x2="400.0" y2="400.0" stroke="#8a5a3c" stroke-width="11.1" stroke-linecap="round"/><line x1="400.0" y1="400.0" x2="421.4" y2="351.2" stroke="#8a5a3c" stroke-width="7.5" stroke-linecap="round"/><line x1="421.4" y1="351.2" x2="451.6" y2="328.2" stroke="#8a5a3c" stroke-width="5.1" stroke-linecap="round"/><line x1="451.6" y1="328.2" x2="480.8" y2="324.8" stroke="#8a5a3c" stroke-width="3.5" stroke-linecap="round"/><line x1="480.8" y1="324.8" x2="502.5" y2="331.5" stroke="#8a5a3c" stroke-width="2.4" stroke-linecap="round"/><circle cx="502.5" cy="331.5" r="6.4" fill="#2d3339" opacity="0.92"/><line x1="480.8" y1="324.8" x2="499.0" y2="314.6" stroke="#8a5a3c" stroke-width="2.4" stroke-linecap="round"/><circle cx="499.0" cy="314.6" r="6.2" fill="#2d3339" opacity="0.92"/><line x1="451.6" y1="328.2" x2="462.2" y2="302.7" stroke="#8a5a3c" stroke-width="3.5" stroke-linecap="round"/><line x1="462.2" y1="302.7" x2="476.2" y2="290.2" stroke="#8a5a3c" stroke-width="2.4" stroke-linecap="round"/><circle cx="476.2" cy="290.2" r="5.0" fill="#2d3339" opacity="0.92"/><line x1="462.2" y1="302.7" x2="462.6" y2="283.0" stroke="#8a5a3c" stroke-width="2.4" stroke-linecap="round"/><circle cx="462.6" cy="283.0" r="6.9" fill="#2d3339" opacity="0.92"/><line x1="421.4" y1="351.2" x2="435.0" y2="317.0" stroke="#8a5a3c" stroke-width="5.1" stroke-linecap="round"/><line x1="435.0" y1="317.0" x2="456.3" y2="299.8" stroke="#8a5a3c" stroke-width="3.5" stroke-linecap="round"/><line x1="456.3" y1="299.8" x2="476.6" y2="294.3" stroke="#8a5a3c" stroke-width="2.4" stroke-linecap="round"/><circle cx="476.6" cy="294.3" r="6.7" fill="#2d3339" opacity="0.92"/><line x1="456.3" y1="299.8" x2="465.8" y2="282.5" stroke="#8a5a3c" stroke-width="2.4" stroke-linecap="round"/><circle cx="465.8" cy="282.5" r="7.0" fill="#2d3339" opacity="0.92"/><line x1="435.0" y1="317.0" x2="431.0" y2="289.1" stroke="#8a5a3c" stroke-width="3.5" stroke-linecap="round"/><line x1="431.0" y1="289.1" x2="439.3" y2="270.9" stroke="#8a5a3c" stroke-width="2.4" stroke-linecap="round"/><circle cx="439.3" cy="270.9" r="5.5" fill="#2d3339" opacity="0.92"/><line x1="431.0" y1="289.1" x2="416.8" y2="273.9" stroke="#8a5a3c" stroke-width="2.4" stroke-linecap="round"/><circle cx="416.8" cy="273.9" r="4.6" fill="#2d3339" opacity="0.92"/><line x1="421.4" y1="351.2" x2="416.7" y2="313.8" stroke="#8a5a3c" stroke-width="5.1" stroke-linecap="round"/><line x1="416.7" y1="313.8" x2="427.7" y2="289.9" stroke="#8a5a3c" stroke-width="3.5" stroke-linecap="round"/><line x1="427.7" y1="289.9" x2="443.4" y2="277.6" stroke="#8a5a3c" stroke-width="2.4" stroke-linecap="round"/><circle cx="443.4" cy="277.6" r="5.8" fill="#2d3339" opacity="0.92"/><line x1="427.7" y1="289.9" x2="426.8" y2="271.5" stroke="#8a5a3c" stroke-width="2.4" stroke-linecap="round"/><circle cx="426.8" cy="271.5" r="5.8" fill="#2d3339" opacity="0.92"/><line x1="416.7" y1="313.8" x2="400.1" y2="293.7" stroke="#8a5a3c" stroke-width="3.5" stroke-linecap="round"/><line x1="400.1" y1="293.7" x2="396.7" y2="274.6" stroke="#8a5a3c" stroke-width="2.4" stroke-linecap="round"/><circle cx="396.7" cy="274.6" r="6.8" fill="#2d3339" opacity="0.92"/><line x1="400.1" y1="293.7" x2="382.6" y2="288.0" stroke="#8a5a3c" stroke-width="2.4" stroke-linecap="round"/><circle cx="382.6" cy="288.0" r="6.2" fill="#2d3339" opacity="0.92"/><line x1="400.0" y1="400.0" x2="401.3" y2="346.2" stroke="#8a5a3c" stroke-width="7.5" stroke-linecap="round"/><line x1="401.3" y1="346.2" x2="426.0" y2="313.6" stroke="#8a5a3c" stroke-width="5.1" stroke-linecap="round"/><line x1="426.0" y1="313.6" x2="454.2" y2="299.6" stroke="#8a5a3c" stroke-width="3.5" stroke-linecap="round"/><line x1="454.2" y1="299.6" x2="478.1" y2="299.6" stroke="#8a5a3c" stroke-width="2.4" stroke-linecap="round"/><circle cx="478.1" cy="299.6" r="7.0" fill="#2d3339" opacity="0.92"/><line x1="454.2" y1="299.6" x2="465.8" y2="280.8" stroke="#8a5a3c" stroke-width="2.4" stroke-linecap="round"/><circle cx="465.8" cy="280.8" r="4.7" fill="#2d3339" opacity="0.92"/><line x1="426.0" y1="313.6" x2="431.6" y2="284.1" stroke="#8a5a3c" stroke-width="3.5" stroke-linecap="round"/><line x1="431.6" y1="284.1" x2="444.5" y2="265.1" stroke="#8a5a3c" stroke-width="2.4" stroke-linecap="round"/><circle cx="444.5" cy="265.1" r="5.6" fill="#2d3339" opacity="0.92"/><line x1="431.6" y1="284.1" x2="427.6" y2="264.0" stroke="#8a5a3c" stroke-width="2.4" stroke-linecap="round"/><circle cx="427.6" cy="264.0" r="5.7" fill="#2d3339" opacity="0.92"/><line x1="401.3" y1="346.2" x2="403.5" y2="304.4" stroke="#8a5a3c" stroke-width="5.1" stroke-linecap="round"/><line x1="403.5" y1="304.4" x2="418.2" y2="277.4" stroke="#8a5a3c" stroke-width="3.5" stroke-linecap="round"/><line x1="418.2" y1="277.4" x2="437.7" y2="266.6" stroke="#8a5a3c" stroke-width="2.4" stroke-linecap="round"/><circle cx="437.7" cy="266.6" r="5.4" fill="#2d3339" opacity="0.92"/><line x1="418.2" y1="277.4" x2="417.0" y2="255.5" stroke="#8a5a3c" stroke-width="2.4" stroke-linecap="round"/><circle cx="417.0" cy="255.5" r="4.8" fill="#2d3339" opacity="0.92"/><line x1="403.5" y1="304.4" x2="390.6" y2="278.1" stroke="#8a5a3c" stroke-width="3.5" stroke-linecap="round"/><line x1="390.6" y1="278.1" x2="390.8" y2="257.6" stroke="#8a5a3c" stroke-width="2.4" stroke-linecap="round"/><circle cx="390.8" cy="257.6" r="5.3" fill="#2d3339" opacity="0.92"/><line x1="390.6" y1="278.1" x2="373.4" y2="264.0" stroke="#8a5a3c" stroke-width="2.4" stroke-linecap="round"/><circle cx="373.4" cy="264.0" r="6.2" fill="#2d3339" opacity="0.92"/><line x1="401.3" y1="346.2" x2="381.5" y2="313.8" stroke="#8a5a3c" stroke-width="5.1" stroke-linecap="round"/><line x1="381.5" y1="313.8" x2="380.0" y2="287.9" stroke="#8a5a3c" stroke-width="3.5" stroke-linecap="round"/><line x1="380.0" y1="287.9" x2="388.2" y2="272.1" stroke="#8a5a3c" stroke-width="2.4" stroke-linecap="round"/><circle cx="388.2" cy="272.1" r="6.0" fill="#2d3339" opacity="0.92"/><line x1="380.0" y1="287.9" x2="369.1" y2="271.0" stroke="#8a5a3c" stroke-width="2.4" stroke-linecap="round"/><circle cx="369.1" cy="271.0" r="6.4" fill="#2d3339" opacity="0.92"/><line x1="381.5" y1="313.8" x2="356.8" y2="298.7" stroke="#8a5a3c" stroke-width="3.5" stroke-linecap="round"/><line x1="356.8" y1="298.7" x2="347.9" y2="280.1" stroke="#8a5a3c" stroke-width="2.4" stroke-linecap="round"/><circle cx="347.9" cy="280.1" r="5.8" fill="#2d3339" opacity="0.92"/><line x1="356.8" y1="298.7" x2="336.6" y2="299.3" stroke="#8a5a3c" stroke-width="2.4" stroke-linecap="round"/><circle cx="336.6" cy="299.3" r="6.0" fill="#2d3339" opacity="0.92"/><line x1="400.0" y1="400.0" x2="380.4" y2="353.7" stroke="#8a5a3c" stroke-width="7.5" stroke-linecap="round"/><line x1="380.4" y1="353.7" x2="378.7" y2="316.8" stroke="#8a5a3c" stroke-width="5.1" stroke-linecap="round"/><line x1="378.7" y1="316.8" x2="393.5" y2="293.6" stroke="#8a5a3c" stroke-width="3.5" stroke-linecap="round"/><line x1="393.5" y1="293.6" x2="410.5" y2="282.1" stroke="#8a5a3c" stroke-width="2.4" stroke-linecap="round"/><circle cx="410.5" cy="282.1" r="6.2" fill="#2d3339" opacity="0.92"/><line x1="393.5" y1="293.6" x2="394.9" y2="273.7" stroke="#8a5a3c" stroke-width="2.4" stroke-linecap="round"/><circle cx="394.9" cy="273.7" r="6.8" fill="#2d3339" opacity="0.92"/><line x1="378.7" y1="316.8" x2="363.5" y2="295.0" stroke="#8a5a3c" stroke-width="3.5" stroke-linecap="round"/><line x1="363.5" y1="295.0" x2="362.2" y2="275.1" stroke="#8a5a3c" stroke-width="2.4" stroke-linecap="round"/><circle cx="362.2" cy="275.1" r="6.6" fill="#2d3339" opacity="0.92"/><line x1="363.5" y1="295.0" x2="344.9" y2="286.2" stroke="#8a5a3c" stroke-width="2.4" stroke-linecap="round"/><circle cx="344.9" cy="286.2" r="6.9" fill="#2d3339" opacity="0.92"/><line x1="380.4" y1="353.7" x2="365.7" y2="317.6" stroke="#8a5a3c" stroke-width="5.1" stroke-linecap="round"/><line x1="365.7" y1="317.6" x2="365.0" y2="290.7" stroke="#8a5a3c" stroke-width="3.5" stroke-linecap="round"/><line x1="365.0" y1="290.7" x2="373.1" y2="273.2" stroke="#8a5a3c" stroke-width="2.4" stroke-linecap="round"/><circle cx="373.1" cy="273.2" r="6.9" fill="#9be9a8" opacity="0.92"/><line x1="365.0" y1="290.7" x2="353.8" y2="273.5" stroke="#8a5a3c" stroke-width="2.4" stroke-linecap="round"/><circle cx="353.8" cy="273.5" r="4.8" fill="#2d3339" opacity="0.92"/><line x1="365.7" y1="317.6" x2="344.1" y2="297.3" stroke="#8a5a3c" stroke-width="3.5" stroke-linecap="round"/><line x1="344.1" y1="297.3" x2="335.2" y2="276.0" stroke="#8a5a3c" stroke-width="2.4" stroke-linecap="round"/><circle cx="335.2" cy="276.0" r="6.9" fill="#2d3339" opacity="0.92"/><line x1="344.1" y1="297.3" x2="324.8" y2="290.0" stroke="#8a5a3c" stroke-width="2.4" stroke-linecap="round"/><circle cx="324.8" cy="290.0" r="5.5" fill="#2d3339" opacity="0.92"/><line x1="380.4" y1="353.7" x2="354.2" y2="329.6" stroke="#8a5a3c" stroke-width="5.1" stroke-linecap="round"/><line x1="354.2" y1="329.6" x2="345.2" y2="305.1" stroke="#8a5a3c" stroke-width="3.5" stroke-linecap="round"/><line x1="345.2" y1="305.1" x2="348.1" y2="287.5" stroke="#8a5a3c" stroke-width="2.4" stroke-linecap="round"/><circle cx="348.1" cy="287.5" r="6.4" fill="#2d3339" opacity="0.92"/><line x1="345.2" y1="305.1" x2="331.9" y2="291.8" stroke="#8a5a3c" stroke-width="2.4" stroke-linecap="round"/><circle cx="331.9" cy="291.8" r="6.3" fill="#2d3339" opacity="0.92"/><line x1="354.2" y1="329.6" x2="328.0" y2="322.6" stroke="#8a5a3c" stroke-width="3.5" stroke-linecap="round"/><line x1="328.0" y1="322.6" x2="314.8" y2="309.6" stroke="#8a5a3c" stroke-width="2.4" stroke-linecap="round"/><circle cx="314.8" cy="309.6" r="4.7" fill="#2d3339" opacity="0.92"/><line x1="328.0" y1="322.6" x2="309.1" y2="327.1" stroke="#8a5a3c" stroke-width="2.4" stroke-linecap="round"/><circle cx="309.1" cy="327.1" r="6.3" fill="#2d3339" opacity="0.92"/>
<path d="M 330.0 470 L 470.0 470 L 455.0 525 L 345.0 525 Z" fill="#b5651d" stroke="#7a4118" stroke-width="3"/><rect x="320.0" y="460" width="160" height="14" rx="4" fill="#c9762a" stroke="#7a4118" stroke-width="2"/>
<text x="400.0" y="540" text-anchor="middle" font-family="Segoe UI, sans-serif" font-size="16" fill="#c9d1d9">132 contributions this year &#8226; 3 day streak</text>
</svg>