<svg xmlns="http://www.w3.org/2000/svg" viewBox="0 0 740 430" width="740" height="430"><text x="370.0" y="28" text-anchor="middle" font-family="Consolas, monospace" font-size="16" fill="#c9d1d9">arcanep00&#8217;s System Dashboard</text><text x="370.0" y="46" text-anchor="middle" font-family="Consolas, monospace" font-size="10" fill="#3fb950">&#9679; 4/6 SERVICES ACTIVE</text><rect x="20" y="80" width="220" height="140" rx="8" fill="#161b22" stroke="#30363d" stroke-width="1.2"/><circle cx="224" cy="96" r="4" fill="#3fb950"/><circle cx="78" cy="150.0" r="38" fill="none" stroke="#21262d" stroke-width="8"/><circle cx="78" cy="150.0" r="38" fill="none" stroke="#58a6ff" stroke-width="8" stroke-linecap="round" stroke-dasharray="185.1 238.8" transform="rotate(-90 78 150.0)" opacity="0.95"/><text x="78" y="155.0" text-anchor="middle" font-family="Consolas, monospace" font-size="14" font-weight="bold" fill="#c9d1d9">123</text><text x="132" y="146.0" font-family="Consolas, monospace" font-size="12" fill="#8b949e">Commits</text><text x="132" y="164.0" font-family="Consolas, monospace" font-size="10" fill="#565d66">status: online</text><rect x="260" y="80" width="220" height="140" rx="8" fill="#161b22" stroke="#30363d" stroke-width="1.2"/><circle cx="464" cy="96" r="4" fill="#3fb950"/><circle cx="318" cy="150.0" r="38" fill="none" stroke="#21262d" stroke-width="8"/><circle cx="318" cy="150.0" r="38" fill="none" stroke="#bc8cff" stroke-width="8" stroke-linecap="round" stroke-dasharray="84.2 238.8" transform="rotate(-90 318 150.0)" opacity="0.95"/><text x="318" y="155.0" text-anchor="middle" font-family="Consolas, monospace" font-size="14" font-weight="bold" fill="#c9d1d9">3</text><text x="372" y="146.0" font-family="Consolas, monospace" font-size="12" fill="#8b949e">Pull Requests</text><text x="372" y="164.0" font-family="Consolas, monospace" font-size="10" fill="#565d66">status: online</text><rect x="500" y="80" width="220" height="140" rx="8" fill="#161b22" stroke="#30363d" stroke-width="1.2"/><circle cx="704" cy="96" r="4" fill="#565d66"/><circle cx="558" cy="150.0" r="38" fill="none" stroke="#21262d" stroke-width="8"/><circle cx="558" cy="150.0" r="38" fill="none" stroke="#ffa657" stroke-width="8" stroke-linecap="round" stroke-dasharray="2.0 238.8" transform="rotate(-90 558 150.0)" opacity="0.95"/><text x="558" y="155.0" text-anchor="middle" font-family="Consolas, monospace" font-size="14" font-weight="bold" fill="#c9d1d9">0</text><text x="612" y="146.0" font-family="Consolas, monospace" font-size="12" fill="#8b949e">Issues</text><text x="612" y="164.0" font-family="Consolas, monospace" font-size="10" fill="#565d66">status: idle</text><rect x="20" y="240" width="220" height="140" rx="8" fill="#161b22" stroke="#30363d" stroke-width="1.2"/><circle cx="224" cy="256" r="4" fill="#3fb950"/><circle cx="78" cy="310.0" r="38" fill="none" stroke="#21262d" stroke-width="8"/><circle cx="78" cy="310.0" r="38" fill="none" stroke="#e3b341" stroke-width="8" stroke-linecap="round" stroke-dasharray="152.8 238.8" transform="rotate(-90 78 310.0)" opacity="0.95"/><text x="78" y="315.0" text-anchor="middle" font-family="Consolas, monospace" font-size="14" font-weight="bold" fill="#c9d1d9">8</text><text x="132" y="306.0" font-family="Consolas, monospace" font-size="12" fill="#8b949e">Repositories</text><text x="132" y="324.0" font-family="Consolas, monospace" font-size="10" fill="#565d66">status: online</text><rect x="260" y="240" width="220" height="140" rx="8" fill="#161b22" stroke="#30363d" stroke-width="1.2"/><circle cx="464" cy="256" r="4" fill="#565d66"/><circle cx="318" cy="310.0" r="38" fill="none" stroke="#21262d" stroke-width="8"/><circle cx="318" cy="310.0" r="38" fill="none" stroke="#ff7b72" stroke-width="8" stroke-linecap="round" stroke-dasharray="2.0 238.8" transform="rotate(-90 318 310.0)" opacity="0.95"/><text x="318" y="315.0" text-anchor="middle" font-family="Consolas, monospace" font-size="14" font-weight="bold" fill="#c9d1d9">0</text><text x="372" y="306.0" font-family="Consolas, monospace" font-size="12" fill="#8b949e">Followers</text><text x="372" y="324.0" font-family="Consolas, monospace" font-size="10" fill="#565d66">status: idle</text><rect x="500" y="240" width="220" height="140" rx="8" fill="#161b22" stroke="#30363d" stroke-width="1.2"/><circle cx="704" cy="256" r="4" fill="#3fb950"/><circle cx="558" cy="310.0" r="38" fill="none" stroke="#21262d" stroke-width="8"/><circle cx="558" cy="310.0" r="38" fill="none" stroke="#39d2c0" stroke-width="8" stroke-linecap="round" stroke-dasharray="62.4 238.8" transform="rotate(-90 558 310.0)" opacity="0.95"/><text x="558" y="315.0" text-anchor="middle" font-family="Consolas, monospace" font-size="14" font-weight="bold" fill="#c9d1d9">3</text><text x="612" y="306.0" font-family="Consolas, monospace" font-size="12" fill="#8b949e">Stars</text><text x="612" y="324.0" font-family="Consolas, monospace" font-size="10" fill="#565d66">status: online</text></svg>