<svg xmlns="http://www.w3.org/2000/svg" viewBox="0 0 960 420" width="960" height="420"><text x="480.0" y="34" text-anchor="middle" font-family="Segoe UI, sans-serif" font-size="18" fill="#c9d1d9">arcanep00&#8217;s Stat Garden</text><rect x="0" y="330" width="960" height="6" fill="#5b3a24" opacity="0.5"/><path d="M 60.0 330.0 Q 64.6 259.0 69.2 188.0" fill="none" stroke="#3a7d44" stroke-width="3.5" stroke-linecap="round"/><ellipse cx="52.8" cy="273.2" rx="9" ry="4.5" fill="#4f9d5a" transform="rotate(-25 52.8 273.2)"/><ellipse cx="72.8" cy="265.2" rx="9" ry="4.5" fill="#4f9d5a" transform="rotate(25 72.8 265.2)"/><circle cx="87.6" cy="188.0" r="13.4" fill="#ff6b81" opacity="0.92"/><circle cx="78.4" cy="204.0" r="13.4" fill="#ff6b81" opacity="0.92"/><circle cx="60.0" cy="204.0" r="13.4" fill="#ff6b81" opacity="0.92"/><circle cx="50.8" cy="188.0" r="13.4" fill="#ff6b81" opacity="0.92"/><circle cx="60.0" cy="172.1" r="13.4" fill="#ff6b81" opacity="0.92"/><circle cx="78.4" cy="172.1" r="13.4" fill="#ff6b81" opacity="0.92"/><circle cx="69.2" cy="188.0" r="10.8" fill="#fff6b7"/><text x="60.0" y="356" text-anchor="middle" font-family="Segoe UI, sans-serif" font-size="12" fill="#8b949e">Commits</text><text x="60.0" y="372" text-anchor="middle" font-family="Segoe UI, sans-serif" font-size="13" font-weight="bold" fill="#c9d1d9">120</text><path d="M 228.0 330.0 Q 225.0 268.6 222.0 207.1" fill="none" stroke="#3a7d44" stroke-width="3.5" stroke-linecap="round"/><ellipse cx="216.2" cy="280.8" rx="9" ry="4.5" fill="#4f9d5a" transform="rotate(-25 216.2 280.8)"/><ellipse cx="236.2" cy="272.8" rx="9" ry="4.5" fill="#4f9d5a" transform="rotate(25 236.2 272.8)"/><circle cx="233.7" cy="207.1" r="8.5" fill="#a78bfa" opacity="0.92"/><circle cx="227.9" cy="217.2" r="8.5" fill="#a78bfa" opacity="0.92"/><circle cx="216.2" cy="217.2" r="8.5" fill="#a78bfa" opacity="0.92"/><circle cx="210.4" cy="207.1" r="8.5" fill="#a78bfa" opacity="0.92"/><circle cx="216.2" cy="197.0" r="8.5" fill="#a78bfa" opacity="0.92"/><circle cx="227.9" cy="197.0" r="8.5" fill="#a78bfa" opacity="0.92"/><circle cx="222.0" cy="207.1" r="6.8" fill="#fff6b7"/><text x="228.0" y="356" text-anchor="middle" font-family="Segoe UI, sans-serif" font-size="12" fill="#8b949e">Pull Requests</text><text x="228.0" y="372" text-anchor="middle" font-family="Segoe UI, sans-serif" font-size="13" font-weight="bold" fill="#c9d1d9">3</text><path d="M 396.0 330.0 Q 391.3 276.6 386.7 223.2" fill="none" stroke="#3a7d44" stroke-width="3.5" stroke-linecap="round"/><ellipse cx="383.2" cy="287.3" rx="9" ry="4.5" fill="#4f9d5a" transform="rotate(-25 383.2 287.3)"/><ellipse cx="403.2" cy="279.3" rx="9" ry="4.5" fill="#4f9d5a" transform="rotate(25 403.2 279.3)"/><circle cx="392.6" cy="223.2" r="4.3" fill="#ffb454" opacity="0.92"/><circle cx="389.6" cy="228.4" r="4.3" fill="#ffb454" opacity="0.92"/><circle cx="383.7" cy="228.4" r="4.3" fill="#ffb454" opacity="0.92"/><circle cx="380.7" cy="223.2" r="4.3" fill="#ffb454" opacity="0.92"/><circle cx="383.7" cy="218.0" r="4.3" fill="#ffb454" opacity="0.92"/><circle cx="389.6" cy="218.0" r="4.3" fill="#ffb454" opacity="0.92"/><circle cx="386.7" cy="223.2" r="3.5" fill="#fff6b7"/><text x="396.0" y="356" text-anchor="middle" font-family="Segoe UI, sans-serif" font-size="12" fill="#8b949e">Issues</text><text x="396.0" y="372" text-anchor="middle" font-family="Segoe UI, sans-serif" font-size="13" font-weight="bold" fill="#c9d1d9">0</text><path d="M 564.0 330.0 Q 559.7 262.0 555.4 194.0" fill="none" stroke="#3a7d44" stroke-width="3.5" stroke-linecap="round"/><ellipse cx="551.4" cy="275.6" rx="9" ry="4.5" fill="#4f9d5a" transform="rotate(-25 551.4 275.6)"/><ellipse cx="571.4" cy="267.6" rx="9" ry="4.5" fill="#4f9d5a" transform="rotate(25 571.4 267.6)"/><circle cx="571.7" cy="194.0" r="11.9" fill="#facc15" opacity="0.92"/><circle cx="563.5" cy="208.1" r="11.9" fill="#facc15" opacity="0.92"/><circle cx="547.2" cy="208.1" r="11.9" fill="#facc15" opacity="0.92"/><circle cx="539.1" cy="194.0" r="11.9" fill="#facc15" opacity="0.92"/><circle cx="547.2" cy="179.9" r="11.9" fill="#facc15" opacity="0.92"/><circle cx="563.5" cy="179.9" r="11.9" fill="#facc15" opacity="0.92"/><circle cx="555.4" cy="194.0" r="9.6" fill="#fff6b7"/><text x="564.0" y="356" text-anchor="middle" font-family="Segoe UI, sans-serif" font-size="12" fill="#8b949e">Repositories</text><text x="564.0" y="372" text-anchor="middle" font-family="Segoe UI, sans-serif" font-size="13" font-weight="bold" fill="#c9d1d9">8</text><path d="M 732.0 330.0 Q 731.8 276.6 731.6 223.2" fill="none" stroke="#3a7d44" stroke-width="3.5" stroke-linecap="round"/><ellipse cx="721.9" cy="287.3" rx="9" ry="4.5" fill="#4f9d5a" transform="rotate(-25 721.9 287.3)"/><ellipse cx="741.9" cy="279.3" rx="9" ry="4.5" fill="#4f9d5a" transform="rotate(25 741.9 279.3)"/><circle cx="737.6" cy="223.2" r="4.3" fill="#ff8fd6" opacity="0.92"/><circle cx="734.6" cy="228.4" r="4.3" fill="#ff8fd6" opacity="0.92"/><circle cx="728.7" cy="228.4" r="4.3" fill="#ff8fd6" opacity="0.92"/><circle cx="725.7" cy="223.2" r="4.3" fill="#ff8fd6" opacity="0.92"/><circle cx="728.7" cy="218.0" r="4.3" fill="#ff8fd6" opacity="0.92"/><circle cx="734.6" cy="218.0" r="4.3" fill="#ff8fd6" opacity="0.92"/><circle cx="731.6" cy="223.2" r="3.5" fill="#fff6b7"/><text x="732.0" y="356" text-anchor="middle" font-family="Segoe UI, sans-serif" font-size="12" fill="#8b949e">Followers</text><text x="732.0" y="372" text-anchor="middle" font-family="Segoe UI, sans-serif" font-size="13" font-weight="bold" fill="#c9d1d9">0</text><path d="M 900.0 330.0 Q 904.2 270.6 908.4 211.3" fill="none" stroke="#3a7d44" stroke-width="3.5" stroke-linecap="round"/><ellipse cx="892.5" cy="282.5" rx="9" ry="4.5" fill="#4f9d5a" transform="rotate(-25 892.5 282.5)"/><ellipse cx="912.5" cy="274.5" rx="9" ry="4.5" fill="#4f9d5a" transform="rotate(25 912.5 274.5)"/><circle cx="918.6" cy="211.3" r="7.4" fill="#7ef9ff" opacity="0.92"/><circle cx="913.5" cy="220.1" r="7.4" fill="#7ef9ff" opacity="0.92"/><circle cx="903.4" cy="220.1" r="7.4" fill="#7ef9ff" opacity="0.92"/><circle cx="898.3" cy="211.3" r="7.4" fill="#7ef9ff" opacity="0.92"/><circle cx="903.4" cy="202.5" r="7.4" fill="#7ef9ff" opacity="0.92"/><circle cx="913.5" cy="202.5" r="7.4" fill="#7ef9ff" opacity="0.92"/><circle cx="908.4" cy="211.3" r="6.0" fill="#fff6b7"/><text x="900.0" y="356" text-anchor="middle" font-family="Segoe UI, sans-serif" font-size="12" fill="#8b949e">Stars</text><text x="900.0" y="372" text-anchor="middle" font-family="Segoe UI, sans-serif" font-size="13" font-weight="bold" fill="#c9d1d9">3</text><rect x="40.0" y="398" width="628.6" height="10" rx="3" fill="#3572A5"/><rect x="668.6" y="398" width="251.4" height="10" rx="3" fill="#2b7489"/><text x="480.0" y="424" text-anchor="middle" font-family="Segoe UI, sans-serif" font-size="11" fill="#8b949e">Python 71%   &#8226;   TypeScript 29%</text></svg>