<svg xmlns="http://www.w3.org/2000/svg" viewBox="0 0 900 260" width="900" height="260"><text x="450.0" y="28" text-anchor="middle" font-family="Consolas, monospace" font-size="16" fill="#c9d1d9">arcanep00&#8217;s Data Pipeline</text><rect x="40" y="100.0" width="820" height="40" rx="20.0" fill="#132433" stroke="#1f6feb" stroke-width="1.5" opacity="0.9"/><rect x="40" y="104.0" width="820" height="4" rx="2" fill="#39c5f2" opacity="0.35"/><rect x="34.0" y="94.0" width="12" height="52" rx="3" fill="#1c2733" stroke="#30363d" stroke-width="1.5"/><circle cx="40.0" cy="90.0" r="1.8" fill="#565d66"/><circle cx="40.0" cy="150.0" r="1.8" fill="#565d66"/><text x="40.0" y="174.0" text-anchor="middle" font-family="Consolas, monospace" font-size="10" fill="#6e7681">INGEST</text><rect x="198.0" y="94.0" width="12" height="52" rx="3" fill="#1c2733" stroke="#30363d" stroke-width="1.5"/><circle cx="204.0" cy="90.0" r="1.8" fill="#565d66"/><circle cx="204.0" cy="150.0" r="1.8" fill="#565d66"/><text x="204.0" y="174.0" text-anchor="middle" font-family="Consolas, monospace" font-size="10" fill="#6e7681">VALIDATE</text><rect x="362.0" y="94.0" width="12" height="52" rx="3" fill="#1c2733" stroke="#30363d" stroke-width="1.5"/><circle cx="368.0" cy="90.0" r="1.8" fill="#565d66"/><circle cx="368.0" cy="150.0" r="1.8" fill="#565d66"/><text x="368.0" y="174.0" text-anchor="middle" font-family="Consolas, monospace" font-size="10" fill="#6e7681">PROCESS</text><rect x="526.0" y="94.0" width="12" height="52" rx="3" fill="#1c2733" stroke="#30363d" stroke-width="1.5"/><circle cx="532.0" cy="90.0" r="1.8" fill="#565d66"/><circle cx="532.0" cy="150.0" r="1.8" fill="#565d66"/><text x="532.0" y="174.0" text-anchor="middle" font-family="Consolas, monospace" font-size="10" fill="#6e7681">QUEUE</text><rect x="690.0" y="94.0" width="12" height="52" rx="3" fill="#1c2733" stroke="#30363d" stroke-width="1.5"/><circle cx="696.0" cy="90.0" r="1.8" fill="#565d66"/><circle cx="696.0" cy="150.0" r="1.8" fill="#565d66"/><text x="696.0" y="174.0" text-anchor="middle" font-family="Consolas, monospace" font-size="10" fill="#6e7681">COMMIT</text><rect x="854.0" y="94.0" width="12" height="52" rx="3" fill="#1c2733" stroke="#30363d" stroke-width="1.5"/><circle cx="860.0" cy="90.0" r="1.8" fill="#565d66"/><circle cx="860.0" cy="150.0" r="1.8" fill="#565d66"/><text x="860.0" y="174.0" text-anchor="middle" font-family="Consolas, monospace" font-size="10" fill="#6e7681">DEPLOY</text><path d="M 60 115 L 68 120 L 60 125" fill="none" stroke="#7ef9ff" stroke-width="1.4" opacity="0.25"/><path d="M 106 115 L 114 120 L 106 125" fill="none" stroke="#7ef9ff" stroke-width="1.4" opacity="0.25"/><path d="M 152 115 L 160 120 L 152 125" fill="none" stroke="#7ef9ff" stroke-width="1.4" opacity="0.25"/><path d="M 198 115 L 206 120 L 198 125" fill="none" stroke="#7ef9ff" stroke-width="1.4" opacity="0.25"/><path d="M 244 115 L 252 120 L 244 125" fill="none" stroke="#7ef9ff" stroke-width="1.4" opacity="0.25"/><path d="M 290 115 L 298 120 L 290 125" fill="none" stroke="#7ef9ff" stroke-width="1.4" opacity="0.25"/><path d="M 336 115 L 344 120 L 336 125" fill="none" stroke="#7ef9ff" stroke-width="1.4" opacity="0.25"/><path d="M 382 115 L 390 120 L 382 125" fill="none" stroke="#7ef9ff" stroke-width="1.4" opacity="0.25"/><path d="M 428 115 L 436 120 L 428 125" fill="none" stroke="#7ef9ff" stroke-width="1.4" opacity="0.25"/><path d="M 474 115 L 482 120 L 474 125" fill="none" stroke="#7ef9ff" stroke-width="1.4" opacity="0.25"/><path d="M 520 115 L 528 120 L 520 125" fill="none" stroke="#7ef9ff" stroke-width="1.4" opacity="0.25"/><path d="M 566 115 L 574 120 L 566 125" fill="none" stroke="#7ef9ff" stroke-width="1.4" opacity="0.25"/><path d="M 612 115 L 620 120 L 612 125" fill="none" stroke="#7ef9ff" stroke-width="1.4" opacity="0.25"/><path d="M 658 115 L 666 120 L 658 125" fill="none" stroke="#7ef9ff" stroke-width="1.4" opacity="0.25"/><path d="M 704 115 L 712 120 L 704 125" fill="none" stroke="#7ef9ff" stroke-width="1.4" opacity="0.25"/><path d="M 750 115 L 758 120 L 750 125" fill="none" stroke="#7ef9ff" stroke-width="1.4" opacity="0.25"/><path d="M 796 115 L 804 120 L 796 125" fill="none" stroke="#7ef9ff" stroke-width="1.4" opacity="0.25"/><path d="M 842 115 L 850 120 L 842 125" fill="none" stroke="#7ef9ff" stroke-width="1.4" opacity="0.25"/><circle cx="478.8" cy="120" r="22.0" fill="#7ef9ff" opacity="0.18"/><rect x="470.8" y="112.0" width="16.0" height="16.0" rx="4.8" fill="#7ef9ff" transform="rotate(45 478.8 120)" opacity="0.95"/><circle cx="791.3" cy="120" r="22.0" fill="#7ef9ff" opacity="0.18"/><rect x="783.3" y="112.0" width="16.0" height="16.0" rx="4.8" fill="#7ef9ff" transform="rotate(45 791.3 120)" opacity="0.95"/><circle cx="811.2" cy="120" r="22.0" fill="#7ef9ff" opacity="0.18"/><rect x="803.2" y="112.0" width="16.0" height="16.0" rx="4.8" fill="#7ef9ff" transform="rotate(45 811.2 120)" opacity="0.95"/><rect x="832.6" y="114.8" width="10.5" height="10.5" rx="3.1" fill="#39c5f2" transform="rotate(45 837.8 120)" opacity="0.95"/><circle cx="857.8" cy="120" r="22.0" fill="#7ef9ff" opacity="0.18"/><rect x="849.8" y="112.0" width="16.0" height="16.0" rx="4.8" fill="#7ef9ff" transform="rotate(45 857.8 120)" opacity="0.95"/><text x="450.0" y="244" text-anchor="middle" font-family="Consolas, monospace" font-size="12" fill="#8b949e">PACKETS PROCESSED: 194 &#8226; ACTIVE UPTIME: 8d</text></svg>