<svg xmlns="http://www.w3.org/2000/svg" viewBox="0 0 368 709" width="368" height="709"><text x="184.0" y="26" text-anchor="middle" font-family="Consolas, monospace" font-size="15" fill="#c9d1d9">arcanep00&#8217;s Server Rack</text><text x="184.0" y="42" text-anchor="middle" font-family="Consolas, monospace" font-size="10" fill="#6e7681">// contribution infrastructure</text><rect x="8" y="50" width="352" height="593" rx="6" fill="#12151a" stroke="#3a3f47" stroke-width="2"/><circle cx="13" cy="58" r="1.6" fill="#050608" stroke="#444a52" stroke-width="0.6"/><circle cx="355" cy="58" r="1.6" fill="#050608" stroke="#444a52" stroke-width="0.6"/><circle cx="13" cy="84" r="1.6" fill="#050608" stroke="#444a52" stroke-width="0.6"/><circle cx="355" cy="84" r="1.6" fill="#050608" stroke="#444a52" stroke-width="0.6"/><circle cx="13" cy="110" r="1.6" fill="#050608" stroke="#444a52" stroke-width="0.6"/><circle cx="355" cy="110" r="1.6" fill="#050608" stroke="#444a52" stroke-width="0.6"/><circle cx="13" cy="136" r="1.6" fill="#050608" stroke="#444a52" stroke-width="0.6"/><circle cx="355" cy="136" r="1.6" fill="#050608" stroke="#444a52" stroke-width="0.6"/><circle cx="13" cy="162" r="1.6" fill="#050608" stroke="#444a52" stroke-width="0.6"/><circle cx="355" cy="162" r="1.6" fill="#050608" stroke="#444a52" stroke-width="0.6"/><circle cx="13" cy="188" r="1.6" fill="#050608" stroke="#444a52" stroke-width="0.6"/><circle cx="355" cy="188" r="1.6" fill="#050608" stroke="#444a52" stroke-width="0.6"/><circle cx="13" cy="214" r="1.6" fill="#050608" stroke="#444a52" stroke-width="0.6"/><circle cx="355" cy="214" r="1.6" fill="#050608" stroke="#444a52" stroke-width="0.6"/><circle cx="13" cy="240" r="1.6" fill="#050608" stroke="#444a52" stroke-width="0.6"/><circle cx="355" cy="240" r="1.6" fill="#050608" stroke="#444a52" stroke-width="0.6"/><circle cx="13" cy="266" r="1.6" fill="#050608" stroke="#444a52" stroke-width="0.6"/><circle cx="355" cy="266" r="1.6" fill="#050608" stroke="#444a52" stroke-width="0.6"/><circle cx="13" cy="292" r="1.6" fill="#050608" stroke="#444a52" stroke-width="0.6"/><circle cx="355" cy="292" r="1.6" fill="#050608" stroke="#444a52" stroke-width="0.6"/><circle cx="13" cy="318" r="1.6" fill="#050608" stroke="#444a52" stroke-width="0.6"/><circle cx="355" cy="318" r="1.6" fill="#050608" stroke="#444a52" stroke-width="0.6"/><circle cx="13" cy="344" r="1.6" fill="#050608" stroke="#444a52" stroke-width="0.6"/><circle cx="355" cy="344" r="1.6" fill="#050608" stroke="#444a52" stroke-width="0.6"/><circle cx="13" cy="370" r="1.6" fill="#050608" stroke="#444a52" stroke-width="0.6"/><circle cx="355" cy="370" r="1.6" fill="#050608" stroke="#444a52" stroke-width="0.6"/><circle cx="13" cy="396" r="1.6" fill="#050608" stroke="#444a52" stroke-width="0.6"/><circle cx="355" cy="396" r="1.6" fill="#050608" stroke="#444a52" stroke-width="0.6"/><circle cx="13" cy="422" r="1.6" fill="#050608" stroke="#444a52" stroke-width="0.6"/><circle cx="355" cy="422" r="1.6" fill="#050608" stroke="#444a52" stroke-width="0.6"/><circle cx="13" cy="448" r="1.6" fill="#050608" stroke="#444a52" stroke-width="0.6"/><circle cx="355" cy="448" r="1.6" fill="#050608" stroke="#444a52" stroke-width="0.6"/><circle cx="13" cy="474" r="1.6" fill="#050608" stroke="#444a52" stroke-width="0.6"/><circle cx="355" cy="474" r="1.6" fill="#050608" stroke="#444a52" stroke-width="0.6"/><circle cx="13" cy="500" r="1.6" fill="#050608" stroke="#444a52" stroke-width="0.6"/><circle cx="355" cy="500" r="1.6" fill="#050608" stroke="#444a52" stroke-width="0.6"/><circle cx="13" cy="526" r="1.6" fill="#050608" stroke="#444a52" stroke-width="0.6"/><circle cx="355" cy="526" r="1.6" fill="#050608" stroke="#444a52" stroke-width="0.6"/><circle cx="13" cy="552" r="1.6" fill="#050608" stroke="#444a52" stroke-width="0.6"/><circle cx="355" cy="552" r="1.6" fill="#050608" stroke="#444a52" stroke-width="0.6"/><circle cx="13" cy="578" r="1.6" fill="#050608" stroke="#444a52" stroke-width="0.6"/><circle cx="355" cy="578" r="1.6" fill="#050608" stroke="#444a52" stroke-width="0.6"/><circle cx="13" cy="604" r="1.6" fill="#050608" stroke="#444a52" stroke-width="0.6"/><circle cx="355" cy="604" r="1.6" fill="#050608" stroke="#444a52" stroke-width="0.6"/><circle cx="13" cy="630" r="1.6" fill="#050608" stroke="#444a52" stroke-width="0.6"/><circle cx="355" cy="630" r="1.6" fill="#050608" stroke="#444a52" stroke-width="0.6"/><rect x="14" y="56" width="340" height="9.5" rx="2" fill="#1a1e24"/><rect x="14" y="56" width="340" height="1" fill="#2a2f38" opacity="0.6"/><text x="22" y="64" font-family="Consolas, monospace" font-size="7.5" fill="#565d66">U53</text><rect x="60" y="58" width="250.0" height="5.5" rx="1.5" fill="#39d2c0" opacity="0.9"/><circle cx="340" cy="60.5" r="2.4" fill="#39d2c0"/><rect x="14" y="67" width="340" height="9.5" rx="2" fill="#1a1e24"/><rect x="14" y="67" width="340" height="1" fill="#2a2f38" opacity="0.6"/><text x="22" y="75" font-family="Consolas, monospace" font-size="7.5" fill="#565d66">U52</text><rect x="60" y="69" width="68.5" height="5.5" rx="1.5" fill="#1f6feb" opacity="0.9"/><circle cx="340" cy="71.5" r="2.4" fill="#1f6feb"/><rect x="14" y="78" width="340" height="9.5" rx="2" fill="#1a1e24"/><rect x="14" y="78" width="340" height="1" fill="#2a2f38" opacity="0.6"/><text x="22" y="86" font-family="Consolas, monospace" font-size="7.5" fill="#565d66">U51</text><rect x="60" y="80" width="74.4" height="5.5" rx="1.5" fill="#1f6feb" opacity="0.9"/><circle cx="340" cy="82.5" r="2.4" fill="#1f6feb"/><rect x="14" y="89" width="340" height="9.5" rx="2" fill="#1a1e24"/><rect x="14" y="89" width="340" height="1" fill="#2a2f38" opacity="0.6"/><text x="22" y="97" font-family="Consolas, monospace" font-size="7.5" fill="#565d66">U50</text><rect x="60" y="91" width="95.2" height="5.5" rx="1.5" fill="#3fb950" opacity="0.9"/><circle cx="340" cy="93.5" r="2.4" fill="#3fb950"/><rect x="14" y="100" width="340" height="9.5" rx="2" fill="#1a1e24"/><rect x="14" y="100" width="340" height="1" fill="#2a2f38" opacity="0.6"/><text x="22" y="108" font-family="Consolas, monospace" font-size="7.5" fill="#565d66">U49</text><rect x="60" y="102" width="44.6" height="5.5" rx="1.5" fill="#1f6feb" opacity="0.9"/><circle cx="340" cy="104.5" r="2.4" fill="#1f6feb"/><rect x="14" y="111" width="340" height="9.5" rx="2" fill="#1a1e24"/><rect x="14" y="111" width="340" height="1" fill="#2a2f38" opacity="0.6"/><text x="22" y="119" font-family="Consolas, monospace" font-size="7.5" fill="#565d66">U48</text><rect x="60" y="113" width="2.0" height="5.5" rx="1.5" fill="#2a2f38" opacity="0.9"/><circle cx="340" cy="115.5" r="2.4" fill="#2a2f38"/><rect x="14" y="122" width="340" height="9.5" rx="2" fill="#1a1e24"/><rect x="14" y="122" width="340" height="1" fill="#2a2f38" opacity="0.6"/><text x="22" y="130" font-family="Consolas, monospace" font-size="7.5" fill="#565d66">U47</text><rect x="60" y="124" width="2.0" height="5.5" rx="1.5" fill="#2a2f38" opacity="0.9"/><circle cx="340" cy="126.5" r="2.4" fill="#2a2f38"/><rect x="14" y="133" width="340" height="9.5" rx="2" fill="#1a1e24"/><rect x="14" y="133" width="340" height="1" fill="#2a2f38" opacity="0.6"/><text x="22" y="141" font-family="Consolas, monospace" font-size="7.5" fill="#565d66">U46</text><rect x="60" y="135" width="2.0" height="5.5" rx="1.5" fill="#2a2f38" opacity="0.9"/><circle cx="340" cy="137.5" r="2.4" fill="#2a2f38"/><rect x="14" y="144" width="340" height="9.5" rx="2" fill="#1a1e24"/><rect x="14" y="144" width="340" height="1" fill="#2a2f38" opacity="0.6"/><text x="22" y="152" font-family="Consolas, monospace" font-size="7.5" fill="#565d66">U45</text><rect x="60" y="146" width="2.0" height="5.5" rx="1.5" fill="#2a2f38" opacity="0.9"/><circle cx="340" cy="148.5" r="2.4" fill="#2a2f38"/><rect x="14" y="155" width="340" height="9.5" rx="2" fill="#1a1e24"/><rect x="14" y="155" width="340" height="1" fill="#2a2f38" opacity="0.6"/><text x="22" y="163" font-family="Consolas, monospace" font-size="7.5" fill="#565d66">U44</text><rect x="60" y="157" width="2.0" height="5.5" rx="1.5" fill="#2a2f38" opacity="0.9"/><circle cx="340" cy="159.5" r="2.4" fill="#2a2f38"/><rect x="14" y="166" width="340" height="9.5" rx="2" fill="#1a1e24"/><rect x="14" y="166" width="340" height="1" fill="#2a2f38" opacity="0.6"/><text x="22" y="174" font-family="Consolas, monospace" font-size="7.5" fill="#565d66">U43</text><rect x="60" y="168" width="2.0" height="5.5" rx="1.5" fill="#2a2f38" opacity="0.9"/><circle cx="340" cy="170.5" r="2.4" fill="#2a2f38"/><rect x="14" y="177" width="340" height="9.5" rx="2" fill="#1a1e24"/><rect x="14" y="177" width="340" height="1" fill="#2a2f38" opacity="0.6"/><text x="22" y="185" font-family="Consolas, monospace" font-size="7.5" fill="#565d66">U42</text><rect x="60" y="179" width="2.0" height="5.5" rx="1.5" fill="#2a2f38" opacity="0.9"/><circle cx="340" cy="181.5" r="2.4" fill="#2a2f38"/><rect x="14" y="188" width="340" height="9.5" rx="2" fill="#1a1e24"/><rect x="14" y="188" width="340" height="1" fill="#2a2f38" opacity="0.6"/><text x="22" y="196" font-family="Consolas, monospace" font-size="7.5" fill="#565d66">U41</text><rect x="60" y="190" width="2.0" height="5.5" rx="1.5" fill="#2a2f38" opacity="0.9"/><circle cx="340" cy="192.5" r="2.4" fill="#2a2f38"/><rect x="14" y="199" width="340" height="9.5" rx="2" fill="#1a1e24"/><rect x="14" y="199" width="340" height="1" fill="#2a2f38" opacity="0.6"/><text x="22" y="207" font-family="Consolas, monospace" font-size="7.5" fill="#565d66">U40</text><rect x="60" y="201" width="2.0" height="5.5" rx="1.5" fill="#2a2f38" opacity="0.9"/><circle cx="340" cy="203.5" r="2.4" fill="#2a2f38"/><rect x="14" y="210" width="340" height="9.5" rx="2" fill="#1a1e24"/><rect x="14" y="210" width="340" height="1" fill="#2a2f38" opacity="0.6"/><text x="22" y="218" font-family="Consolas, monospace" font-size="7.5" fill="#565d66">U39</text><rect x="60" y="212" width="2.0" height="5.5" rx="1.5" fill="#2a2f38" opacity="0.9"/><circle cx="340" cy="214.5" r="2.4" fill="#2a2f38"/><rect x="14" y="221" width="340" height="9.5" rx="2" fill="#1a1e24"/><rect x="14" y="221" width="340" height="1" fill="#2a2f38" opacity="0.6"/><text x="22" y="229" font-family="Consolas, monospace" font-size="7.5" fill="#565d66">U38</text><rect x="60" y="223" width="2.0" height="5.5" rx="1.5" fill="#2a2f38" opacity="0.9"/><circle cx="340" cy="225.5" r="2.4" fill="#2a2f38"/><rect x="14" y="232" width="340" height="9.5" rx="2" fill="#1a1e24"/><rect x="14" y="232" width="340" height="1" fill="#2a2f38" opacity="0.6"/><text x="22" y="240" font-family="Consolas, monospace" font-size="7.5" fill="#565d66">U37</text><rect x="60" y="234" width="2.0" height="5.5" rx="1.5" fill="#2a2f38" opacity="0.9"/><circle cx="340" cy="236.5" r="2.4" fill="#2a2f38"/><rect x="14" y="243" width="340" height="9.5" rx="2" fill="#1a1e24"/><rect x="14" y="243" width="340" height="1" fill="#2a2f38" opacity="0.6"/><text x="22" y="251" font-family="Consolas, monospace" font-size="7.5" fill="#565d66">U36</text><rect x="60" y="245" width="2.0" height="5.5" rx="1.5" fill="#2a2f38" opacity="0.9"/><circle cx="340" cy="247.5" r="2.4" fill="#2a2f38"/><rect x="14" y="254" width="340" height="9.5" rx="2" fill="#1a1e24"/><rect x="14" y="254" width="340" height="1" fill="#2a2f38" opacity="0.6"/><text x="22" y="262" font-family="Consolas, monospace" font-size="7.5" fill="#565d66">U35</text><rect x="60" y="256" width="2.0" height="5.5" rx="1.5" fill="#2a2f38" opacity="0.9"/><circle cx="340" cy="258.5" r="2.4" fill="#2a2f38"/><rect x="14" y="265" width="340" height="9.5" rx="2" fill="#1a1e24"/><rect x="14" y="265" width="340" height="1" fill="#2a2f38" opacity="0.6"/><text x="22" y="273" font-family="Consolas, monospace" font-size="7.5" fill="#565d66">U34</text><rect x="60" y="267" width="2.0" height="5.5" rx="1.5" fill="#2a2f38" opacity="0.9"/><circle cx="340" cy="269.5" r="2.4" fill="#2a2f38"/><rect x="14" y="276" width="340" height="9.5" rx="2" fill="#1a1e24"/><rect x="14" y="276" width="340" height="1" fill="#2a2f38" opacity="0.6"/><text x="22" y="284" font-family="Consolas, monospace" font-size="7.5" fill="#565d66">U33</text><rect x="60" y="278" width="2.0" height="5.5" rx="1.5" fill="#2a2f38" opacity="0.9"/><circle cx="340" cy="280.5" r="2.4" fill="#2a2f38"/><rect x="14" y="287" width="340" height="9.5" rx="2" fill="#1a1e24"/><rect x="14" y="287" width="340" height="1" fill="#2a2f38" opacity="0.6"/><text x="22" y="295" font-family="Consolas, monospace" font-size="7.5" fill="#565d66">U32</text><rect x="60" y="289" width="2.0" height="5.5" rx="1.5" fill="#2a2f38" opacity="0.9"/><circle cx="340" cy="291.5" r="2.4" fill="#2a2f38"/><rect x="14" y="298" width="340" height="9.5" rx="2" fill="#1a1e24"/><rect x="14" y="298" width="340" height="1" fill="#2a2f38" opacity="0.6"/><text x="22" y="306" font-family="Consolas, monospace" font-size="7.5" fill="#565d66">U31</text><rect x="60" y="300" width="2.0" height="5.5" rx="1.5" fill="#2a2f38" opacity="0.9"/><circle cx="340" cy="302.5" r="2.4" fill="#2a2f38"/><rect x="14" y="309" width="340" height="9.5" rx="2" fill="#1a1e24"/><rect x="14" y="309" width="340" height="1" fill="#2a2f38" opacity="0.6"/><text x="22" y="317" font-family="Consolas, monospace" font-size="7.5" fill="#565d66">U30</text><rect x="60" y="311" width="2.0" height="5.5" rx="1.5" fill="#2a2f38" opacity="0.9"/><circle cx="340" cy="313.5" r="2.4" fill="#2a2f38"/><rect x="14" y="320" width="340" height="9.5" rx="2" fill="#1a1e24"/><rect x="14" y="320" width="340" height="1" fill="#2a2f38" opacity="0.6"/><text x="22" y="328" font-family="Consolas, monospace" font-size="7.5" fill="#565d66">U29</text><rect x="60" y="322" width="6.0" height="5.5" rx="1.5" fill="#1f6feb" opacity="0.9"/><circle cx="340" cy="324.5" r="2.4" fill="#1f6feb"/><rect x="14" y="331" width="340" height="9.5" rx="2" fill="#1a1e24"/><rect x="14" y="331" width="340" height="1" fill="#2a2f38" opacity="0.6"/><text x="22" y="339" font-family="Consolas, monospace" font-size="7.5" fill="#565d66">U28</text><rect x="60" y="333" width="2.0" height="5.5" rx="1.5" fill="#2a2f38" opacity="0.9"/><circle cx="340" cy="335.5" r="2.4" fill="#2a2f38"/><rect x="14" y="342" width="340" height="9.5" rx="2" fill="#1a1e24"/><rect x="14" y="342" width="340" height="1" fill="#2a2f38" opacity="0.6"/><text x="22" y="350" font-family="Consolas, monospace" font-size="7.5" fill="#565d66">U27</text><rect x="60" y="344" width="2.0" height="5.5" rx="1.5" fill="#2a2f38" opacity="0.9"/><circle cx="340" cy="346.5" r="2.4" fill="#2a2f38"/><rect x="14" y="353" width="340" height="9.5" rx="2" fill="#1a1e24"/><rect x="14" y="353" width="340" height="1" fill="#2a2f38" opacity="0.6"/><text x="22" y="361" font-family="Consolas, monospace" font-size="7.5" fill="#565d66">U26</text><rect x="60" y="355" width="2.0" height="5.5" rx="1.5" fill="#2a2f38" opacity="0.9"/><circle cx="340" cy="357.5" r="2.4" fill="#2a2f38"/><rect x="14" y="364" width="340" height="9.5" rx="2" fill="#1a1e24"/><rect x="14" y="364" width="340" height="1" fill="#2a2f38" opacity="0.6"/><text x="22" y="372" font-family="Consolas, monospace" font-size="7.5" fill="#565d66">U25</text><rect x="60" y="366" width="2.0" height="5.5" rx="1.5" fill="#2a2f38" opacity="0.9"/><circle cx="340" cy="368.5" r="2.4" fill="#2a2f38"/><rect x="14" y="375" width="340" height="9.5" rx="2" fill="#1a1e24"/><rect x="14" y="375" width="340" height="1" fill="#2a2f38" opacity="0.6"/><text x="22" y="383" font-family="Consolas, monospace" font-size="7.5" fill="#565d66">U24</text><rect x="60" y="377" width="2.0" height="5.5" rx="1.5" fill="#2a2f38" opacity="0.9"/><circle cx="340" cy="379.5" r="2.4" fill="#2a2f38"/><rect x="14" y="386" width="340" height="9.5" rx="2" fill="#1a1e24"/><rect x="14" y="386" width="340" height="1" fill="#2a2f38" opacity="0.6"/><text x="22" y="394" font-family="Consolas, monospace" font-size="7.5" fill="#565d66">U23</text><rect x="60" y="388" width="2.0" height="5.5" rx="1.5" fill="#2a2f38" opacity="0.9"/><circle cx="340" cy="390.5" r="2.4" fill="#2a2f38"/><rect x="14" y="397" width="340" height="9.5" rx="2" fill="#1a1e24"/><rect x="14" y="397" width="340" height="1" fill="#2a2f38" opacity="0.6"/><text x="22" y="405" font-family="Consolas, monospace" font-size="7.5" fill="#565d66">U22</text><rect x="60" y="399" width="2.0" height="5.5" rx="1.5" fill="#2a2f38" opacity="0.9"/><circle cx="340" cy="401.5" r="2.4" fill="#2a2f38"/><rect x="14" y="408" width="340" height="9.5" rx="2" fill="#1a1e24"/><rect x="14" y="408" width="340" height="1" fill="#2a2f38" opacity="0.6"/><text x="22" y="416" font-family="Consolas, monospace" font-size="7.5" fill="#565d66">U21</text><rect x="60" y="410" width="2.0" height="5.5" rx="1.5" fill="#2a2f38" opacity="0.9"/><circle cx="340" cy="412.5" r="2.4" fill="#2a2f38"/><rect x="14" y="419" width="340" height="9.5" rx="2" fill="#1a1e24"/><rect x="14" y="419" width="340" height="1" fill="#2a2f38" opacity="0.6"/><text x="22" y="427" font-family="Consolas, monospace" font-size="7.5" fill="#565d66">U20</text><rect x="60" y="421" width="2.0" height="5.5" rx="1.5" fill="#2a2f38" opacity="0.9"/><circle cx="340" cy="423.5" r="2.4" fill="#2a2f38"/><rect x="14" y="430" width="340" height="9.5" rx="2" fill="#1a1e24"/><rect x="14" y="430" width="340" height="1" fill="#2a2f38" opacity="0.6"/><text x="22" y="438" font-family="Consolas, monospace" font-size="7.5" fill="#565d66">U19</text><rect x="60" y="432" width="2.0" height="5.5" rx="1.5" fill="#2a2f38" opacity="0.9"/><circle cx="340" cy="434.5" r="2.4" fill="#2a2f38"/><rect x="14" y="441" width="340" height="9.5" rx="2" fill="#1a1e24"/><rect x="14" y="441" width="340" height="1" fill="#2a2f38" opacity="0.6"/><text x="22" y="449" font-family="Consolas, monospace" font-size="7.5" fill="#565d66">U18</text><rect x="60" y="443" width="2.0" height="5.5" rx="1.5" fill="#2a2f38" opacity="0.9"/><circle cx="340" cy="445.5" r="2.4" fill="#2a2f38"/><rect x="14" y="452" width="340" height="9.5" rx="2" fill="#1a1e24"/><rect x="14" y="452" width="340" height="1" fill="#2a2f38" opacity="0.6"/><text x="22" y="460" font-family="Consolas, monospace" font-size="7.5" fill="#565d66">U17</text><rect x="60" y="454" width="2.0" height="5.5" rx="1.5" fill="#2a2f38" opacity="0.9"/><circle cx="340" cy="456.5" r="2.4" fill="#2a2f38"/><rect x="14" y="463" width="340" height="9.5" rx="2" fill="#1a1e24"/><rect x="14" y="463" width="340" height="1" fill="#2a2f38" opacity="0.6"/><text x="22" y="471" font-family="Consolas, monospace" font-size="7.5" fill="#565d66">U16</text><rect x="60" y="465" width="2.0" height="5.5" rx="1.5" fill="#2a2f38" opacity="0.9"/><circle cx="340" cy="467.5" r="2.4" fill="#2a2f38"/><rect x="14" y="474" width="340" height="9.5" rx="2" fill="#1a1e24"/><rect x="14" y="474" width="340" height="1" fill="#2a2f38" opacity="0.6"/><text x="22" y="482" font-family="Consolas, monospace" font-size="7.5" fill="#565d66">U15</text><rect x="60" y="476" width="2.0" height="5.5" rx="1.5" fill="#2a2f38" opacity="0.9"/><circle cx="340" cy="478.5" r="2.4" fill="#2a2f38"/><rect x="14" y="485" width="340" height="9.5" rx="2" fill="#1a1e24"/><rect x="14" y="485" width="340" height="1" fill="#2a2f38" opacity="0.6"/><text x="22" y="493" font-family="Consolas, monospace" font-size="7.5" fill="#565d66">U14</text><rect x="60" y="487" width="2.0" height="5.5" rx="1.5" fill="#2a2f38" opacity="0.9"/><circle cx="340" cy="489.5" r="2.4" fill="#2a2f38"/><rect x="14" y="496" width="340" height="9.5" rx="2" fill="#1a1e24"/><rect x="14" y="496" width="340" height="1" fill="#2a2f38" opacity="0.6"/><text x="22" y="504" font-family="Consolas, monospace" font-size="7.5" fill="#565d66">U13</text><rect x="60" y="498" width="2.0" height="5.5" rx="1.5" fill="#2a2f38" opacity="0.9"/><circle cx="340" cy="500.5" r="2.4" fill="#2a2f38"/><rect x="14" y="507" width="340" height="9.5" rx="2" fill="#1a1e24"/><rect x="14" y="507" width="340" height="1" fill="#2a2f38" opacity="0.6"/><text x="22" y="515" font-family="Consolas, monospace" font-size="7.5" fill="#565d66">U12</text><rect x="60" y="509" width="2.0" height="5.5" rx="1.5" fill="#2a2f38" opacity="0.9"/><circle cx="340" cy="511.5" r="2.4" fill="#2a2f38"/><rect x="14" y="518" width="340" height="9.5" rx="2" fill="#1a1e24"/><rect x="14" y="518" width="340" height="1" fill="#2a2f38" opacity="0.6"/><text x="22" y="526" font-family="Consolas, monospace" font-size="7.5" fill="#565d66">U11</text><rect x="60" y="520" width="2.0" height="5.5" rx="1.5" fill="#2a2f38" opacity="0.9"/><circle cx="340" cy="522.5" r="2.4" fill="#2a2f38"/><rect x="14" y="529" width="340" height="9.5" rx="2" fill="#1a1e24"/><rect x="14" y="529" width="340" height="1" fill="#2a2f38" opacity="0.6"/><text x="22" y="537" font-family="Consolas, monospace" font-size="7.5" fill="#565d66">U10</text><rect x="60" y="531" width="2.0" height="5.5" rx="1.5" fill="#2a2f38" opacity="0.9"/><circle cx="340" cy="533.5" r="2.4" fill="#2a2f38"/><rect x="14" y="540" width="340" height="9.5" rx="2" fill="#1a1e24"/><rect x="14" y="540" width="340" height="1" fill="#2a2f38" opacity="0.6"/><text x="22" y="548" font-family="Consolas, monospace" font-size="7.5" fill="#565d66">U09</text><rect x="60" y="542" width="2.0" height="5.5" rx="1.5" fill="#2a2f38" opacity="0.9"/><circle cx="340" cy="544.5" r="2.4" fill="#2a2f38"/><rect x="14" y="551" width="340" height="9.5" rx="2" fill="#1a1e24"/><rect x="14" y="551" width="340" height="1" fill="#2a2f38" opacity="0.6"/><text x="22" y="559" font-family="Consolas, monospace" font-size="7.5" fill="#565d66">U08</text><rect x="60" y="553" width="2.0" height="5.5" rx="1.5" fill="#2a2f38" opacity="0.9"/><circle cx="340" cy="555.5" r="2.4" fill="#2a2f38"/><rect x="14" y="562" width="340" height="9.5" rx="2" fill="#1a1e24"/><rect x="14" y="562" width="340" height="1" fill="#2a2f38" opacity="0.6"/><text x="22" y="570" font-family="Consolas, monospace" font-size="7.5" fill="#565d66">U07</text><rect x="60" y="564" width="2.0" height="5.5" rx="1.5" fill="#2a2f38" opacity="0.9"/><circle cx="340" cy="566.5" r="2.4" fill="#2a2f38"/><rect x="14" y="573" width="340" height="9.5" rx="2" fill="#1a1e24"/><rect x="14" y="573" width="340" height="1" fill="#2a2f38" opacity="0.6"/><text x="22" y="581" font-family="Consolas, monospace" font-size="7.5" fill="#565d66">U06</text><rect x="60" y="575" width="2.0" height="5.5" rx="1.5" fill="#2a2f38" opacity="0.9"/><circle cx="340" cy="577.5" r="2.4" fill="#2a2f38"/><rect x="14" y="584" width="340" height="9.5" rx="2" fill="#1a1e24"/><rect x="14" y="584" width="340" height="1" fill="#2a2f38" opacity="0.6"/><text x="22" y="592" font-family="Consolas, monospace" font-size="7.5" fill="#565d66">U05</text><rect x="60" y="586" width="2.0" height="5.5" rx="1.5" fill="#2a2f38" opacity="0.9"/><circle cx="340" cy="588.5" r="2.4" fill="#2a2f38"/><rect x="14" y="595" width="340" height="9.5" rx="2" fill="#1a1e24"/><rect x="14" y="595" width="340" height="1" fill="#2a2f38" opacity="0.6"/><text x="22" y="603" font-family="Consolas, monospace" font-size="7.5" fill="#565d66">U04</text><rect x="60" y="597" width="2.0" height="5.5" rx="1.5" fill="#2a2f38" opacity="0.9"/><circle cx="340" cy="599.5" r="2.4" fill="#2a2f38"/><rect x="14" y="606" width="340" height="9.5" rx="2" fill="#1a1e24"/><rect x="14" y="606" width="340" height="1" fill="#2a2f38" opacity="0.6"/><text x="22" y="614" font-family="Consolas, monospace" font-size="7.5" fill="#565d66">U03</text><rect x="60" y="608" width="2.0" height="5.5" rx="1.5" fill="#2a2f38" opacity="0.9"/><circle cx="340" cy="610.5" r="2.4" fill="#2a2f38"/><rect x="14" y="617" width="340" height="9.5" rx="2" fill="#1a1e24"/><rect x="14" y="617" width="340" height="1" fill="#2a2f38" opacity="0.6"/><text x="22" y="625" font-family="Consolas, monospace" font-size="7.5" fill="#565d66">U02</text><rect x="60" y="619" width="2.0" height="5.5" rx="1.5" fill="#2a2f38" opacity="0.9"/><circle cx="340" cy="621.5" r="2.4" fill="#2a2f38"/><rect x="14" y="628" width="340" height="9.5" rx="2" fill="#1a1e24"/><rect x="14" y="628" width="340" height="1" fill="#2a2f38" opacity="0.6"/><text x="22" y="636" font-family="Consolas, monospace" font-size="7.5" fill="#565d66">U01</text><rect x="60" y="630" width="2.0" height="5.5" rx="1.5" fill="#2a2f38" opacity="0.9"/><circle cx="340" cy="632.5" r="2.4" fill="#2a2f38"/><text x="184.0" y="665" text-anchor="middle" font-family="Consolas, monospace" font-size="11" fill="#8b949e">THROUGHPUT: 181 commits/yr &#8226; UPTIME STREAK: 6d</text><text x="184.0" y="683" text-anchor="middle" font-family="Consolas, monospace" font-size="11" fill="#3fb950">SYSTEM UPTIME: 6.0%</text></svg>