<svg xmlns="http://www.w3.org/2000/svg" viewBox="0 0 900 320" width="900" height="320">
  <defs>
    <linearGradient id="riverGrad" x1="0" y1="0" x2="1" y2="0">
      <stop offset="0%" stop-color="#0b3d63"/>
      <stop offset="45%" stop-color="#0e7490"/>
      <stop offset="75%" stop-color="#22c1dc"/>
      <stop offset="100%" stop-color="#7ef9ff"/>
    </linearGradient>
  </defs>
  <text x="450.0" y="30" text-anchor="middle" font-family="Segoe UI, sans-serif" font-size="17" fill="#c9d1d9">arcanep00&#8217;s Contribution River</text>
  <path d="M 30.0 161.7 C 30.8 161.7 33.1 161.8 34.6 161.9 C 36.1 162.0 37.7 162.1 39.2 162.1 C 40.7 162.2 42.3 162.3 43.8 162.3 C 45.3 162.4 46.9 162.5 48.4 162.5 C 49.9 162.6 51.5 162.6 53.0 162.7 C 54.5 162.7 56.1 162.8 57.6 162.8 C 59.2 162.8 60.7 162.9 62.2 162.9 C 63.8 162.9 65.3 162.9 66.8 162.9 C 68.4 163.0 69.9 163.0 71.4 163.0 C 73.0 163.0 74.5 163.0 76.0 163.0 C 77.6 163.0 79.1 163.0 80.6 163.0 C 82.2 163.0 83.7 163.0 85.2 162.9 C 86.8 162.9 88.3 162.9 89.8 162.9 C 91.4 162.8 92.9 162.8 94.4 162.8 C 96.0 162.7 97.5 162.7 99.0 162.7 C 100.6 162.6 102.1 162.6 103.6 162.5 C 105.2 162.4 106.7 162.4 108.2 162.3 C 109.8 162.3 111.3 162.2 112.8 162.1 C 114.4 162.1 115.9 162.0 117.5 161.9 C 119.0 161.8 120.5 161.7 122.1 161.6 C 123.6 161.6 125.1 161.5 126.7 161.4 C 128.2 161.3 129.7 161.2 131.3 161.1 C 132.8 161.0 134.3 160.8 135.9 160.7 C 137.4 160.6 138.9 160.5 140.5 160.4 C 142.0 160.3 143.5 160.1 145.1 160.0 C 146.6 159.9 148.1 159.7 149.7 159.6 C 151.2 159.5 152.7 159.3 154.3 159.2 C 155.8 159.0 157.3 158.9 158.9 158.8 C 160.4 158.6 161.9 158.4 163.5 158.3 C 165.0 158.1 166.5 158.0 168.1 157.8 C 169.6 157.7 171.2 157.5 172.7 157.3 C 174.2 157.2 175.8 157.0 177.3 156.8 C 178.8 156.6 180.4 156.5 181.9 156.3 C 183.4 156.1 185.0 155.9 186.5 155.7 C 188.0 155.5 189.6 155.4 191.1 155.2 C 192.6 155.0 194.2 154.8 195.7 154.6 C 197.2 154.4 198.8 154.2 200.3 154.0 C 201.8 153.8 203.4 153.6 204.9 153.4 C 206.4 153.2 208.0 153.0 209.5 152.8 C 211.0 152.6 212.6 152.4 214.1 152.2 C 215.6 152.0 217.2 151.8 218.7 151.5 C 220.2 151.3 221.8 151.1 223.3 150.9 C 224.8 150.7 226.4 150.5 227.9 150.3 C 229.5 150.0 231.0 149.8 232.5 149.6 C 234.1 149.4 235.6 149.2 237.1 149.0 C 238.7 148.7 240.2 148.5 241.7 148.3 C 243.3 148.1 244.8 147.9 246.3 147.6 C 247.9 147.4 249.4 147.2 250.9 147.0 C 252.5 146.8 254.0 146.5 255.5 146.3 C 257.1 146.1 258.6 145.9 260.1 145.7 C 261.7 145.4 263.2 145.2 264.7 145.0 C 266.3 144.8 267.8 144.6 269.3 144.3 C 270.9 144.1 272.4 143.9 273.9 143.7 C 275.5 143.5 277.0 143.3 278.5 143.1 C 280.1 142.8 281.6 142.6 283.2 142.4 C 284.7 142.2 286.2 142.0 287.8 141.8 C 289.3 141.6 290.8 141.4 292.4 141.2 C 293.9 141.0 295.4 140.8 297.0 140.6 C 298.5 140.4 300.0 140.2 301.6 140.0 C 303.1 139.8 304.6 139.6 306.2 139.4 C 307.7 139.2 309.2 139.0 310.8 138.8 C 312.3 138.6 313.8 138.4 315.4 138.2 C 316.9 138.1 318.4 137.9 320.0 137.7 C 321.5 137.5 323.0 137.3 324.6 137.2 C 326.1 137.0 327.6 136.8 329.2 136.6 C 330.7 136.5 332.2 136.3 333.8 136.2 C 335.3 136.0 336.8 135.8 338.4 135.7 C 339.9 135.5 341.5 135.4 343.0 135.2 C 344.5 135.1 346.1 134.9 347.6 134.8 C 349.1 134.6 350.7 134.5 352.2 134.4 C 353.7 134.2 355.3 134.1 356.8 134.0 C 358.3 133.8 359.9 133.7 361.4 133.6 C 362.9 133.5 364.5 133.4 366.0 133.2 C 367.5 133.1 369.1 133.0 370.6 132.9 C 372.1 132.8 373.7 132.7 375.2 132.6 C 376.7 132.5 378.3 132.4 379.8 132.3 C 381.3 132.3 382.9 132.2 384.4 132.1 C 385.9 132.0 387.5 131.9 389.0 131.9 C 390.5 131.8 392.1 131.7 393.6 131.7 C 395.2 131.6 396.7 131.5 398.2 131.5 C 399.8 131.4 401.3 131.4 402.8 131.3 C 404.4 131.3 405.9 131.3 407.4 131.2 C 409.0 131.2 410.5 131.1 412.0 131.1 C 413.6 131.1 415.1 131.1 416.6 131.1 C 418.2 131.0 419.7 131.0 421.2 131.0 C 422.8 131.0 424.3 131.0 425.8 131.0 C 427.4 131.0 428.9 131.0 430.4 131.0 C 432.0 131.0 433.5 131.0 435.0 131.1 C 436.6 131.1 438.1 131.1 439.6 131.1 C 441.2 131.2 442.7 131.2 444.2 131.2 C 445.8 131.3 447.3 131.3 448.8 131.3 C 450.4 131.4 451.9 131.4 453.5 131.5 C 455.0 131.5 456.5 131.6 458.1 131.7 C 459.6 131.7 461.1 131.8 462.7 131.9 C 464.2 131.9 465.7 132.0 467.3 132.1 C 468.8 132.2 470.3 132.3 471.9 132.3 C 473.4 132.4 474.9 134.0 476.5 132.6 C 478.0 131.2 479.5 125.3 481.1 123.9 C 482.6 122.5 484.1 124.1 485.7 124.3 C 487.2 124.4 488.7 124.5 490.3 124.6 C 491.8 124.7 493.3 123.4 494.9 125.0 C 496.4 126.6 497.9 132.7 499.5 134.4 C 501.0 136.0 502.5 134.6 504.1 134.8 C 505.6 134.9 507.2 135.1 508.7 135.2 C 510.2 135.4 511.8 135.5 513.3 135.7 C 514.8 135.8 516.4 136.0 517.9 136.2 C 519.4 136.3 521.0 136.5 522.5 136.7 C 524.0 136.8 525.6 137.0 527.1 137.2 C 528.6 137.3 530.2 137.5 531.7 137.7 C 533.2 137.9 534.8 138.1 536.3 138.2 C 537.8 138.4 539.4 138.6 540.9 138.8 C 542.4 139.0 544.0 139.2 545.5 139.4 C 547.0 139.6 548.6 139.8 550.1 140.0 C 551.6 140.2 553.2 140.4 554.7 140.6 C 556.2 140.8 557.8 141.0 559.3 141.2 C 560.8 141.4 562.4 141.6 563.9 141.8 C 565.5 142.0 567.0 142.2 568.5 142.4 C 570.1 142.6 571.6 142.9 573.1 143.1 C 574.7 143.3 576.2 143.5 577.7 143.7 C 579.3 143.9 580.8 144.1 582.3 144.4 C 583.9 144.6 585.4 144.8 586.9 145.0 C 588.5 145.2 590.0 145.5 591.5 145.7 C 593.1 145.9 594.6 146.1 596.1 146.3 C 597.7 146.6 599.2 146.8 600.7 147.0 C 602.3 147.2 603.8 147.4 605.3 147.7 C 606.9 147.9 608.4 148.1 609.9 148.3 C 611.5 148.5 613.0 148.8 614.5 149.0 C 616.1 149.2 617.6 149.4 619.2 149.6 C 620.7 149.8 622.2 150.1 623.8 150.3 C 625.3 150.5 626.8 150.7 628.4 150.9 C 629.9 151.1 631.4 151.3 633.0 151.6 C 634.5 151.8 636.0 152.0 637.6 152.2 C 639.1 152.4 640.6 152.6 642.2 152.8 C 643.7 153.0 645.2 153.2 646.8 153.4 C 648.3 153.6 649.8 153.8 651.4 154.0 C 652.9 154.2 654.4 154.4 656.0 154.6 C 657.5 154.8 659.0 155.0 660.6 155.2 C 662.1 155.4 663.6 155.6 665.2 155.7 C 666.7 155.9 668.2 156.1 669.8 156.3 C 671.3 156.5 672.8 156.6 674.4 156.8 C 675.9 157.0 677.5 157.2 679.0 157.3 C 680.5 157.5 682.1 157.7 683.6 157.8 C 685.1 158.0 686.7 158.1 688.2 158.3 C 689.7 158.5 691.3 158.6 692.8 158.8 C 694.3 158.9 695.9 159.1 697.4 159.2 C 698.9 159.3 700.5 159.5 702.0 159.6 C 703.5 159.8 705.1 159.9 706.6 160.0 C 708.1 160.1 709.7 160.3 711.2 160.4 C 712.7 160.5 714.3 160.6 715.8 160.7 C 717.3 160.9 718.9 161.0 720.4 161.1 C 721.9 161.2 723.5 161.3 725.0 161.4 C 726.5 161.5 728.1 161.6 729.6 161.6 C 731.2 161.7 732.7 161.8 734.2 161.9 C 735.8 162.0 737.3 162.1 738.8 162.1 C 740.4 162.2 741.9 162.3 743.4 162.3 C 745.0 162.4 746.5 162.5 748.0 162.5 C 749.6 162.6 751.1 162.6 752.6 162.7 C 754.2 162.7 755.7 162.7 757.2 162.8 C 758.8 162.8 760.3 162.8 761.8 162.9 C 763.4 162.9 764.9 162.9 766.4 162.9 C 768.0 163.0 769.5 163.0 771.0 163.0 C 772.6 163.0 774.1 163.0 775.6 163.0 C 777.2 163.0 778.7 163.0 780.2 163.0 C 781.8 163.0 783.3 163.0 784.8 162.9 C 786.4 162.9 787.9 162.9 789.5 162.9 C 791.0 162.9 792.5 162.8 794.1 162.8 C 795.6 162.7 797.1 168.7 798.7 162.7 C 800.2 156.6 801.7 132.6 803.3 126.5 C 804.8 120.5 806.3 126.4 807.9 126.3 C 809.4 126.3 810.9 126.2 812.5 126.1 C 814.0 126.1 815.5 126.0 817.1 125.9 C 818.6 125.8 820.1 125.7 821.7 125.7 C 823.2 125.6 824.7 125.5 826.3 125.4 C 827.8 125.3 829.3 125.2 830.9 125.1 C 832.4 125.0 833.9 124.9 835.5 124.8 C 837.0 124.6 838.5 124.5 840.1 124.4 C 841.6 124.3 843.2 121.9 844.7 124.0 C 846.2 126.2 847.8 132.0 849.3 137.1 C 850.8 142.3 852.4 157.1 853.9 154.7 C 855.4 152.3 857.0 128.2 858.5 122.8 C 860.0 117.4 861.6 122.5 863.1 122.3 C 864.6 122.2 866.5 122.0 867.7 121.9 C 868.8 121.7 869.6 121.7 870.0 121.6 L 870.0 199.6 C 869.6 199.7 868.8 199.7 867.7 199.9 C 866.5 200.0 864.6 200.2 863.1 200.3 C 861.6 200.5 860.0 205.9 858.5 200.8 C 857.0 195.7 855.4 171.8 853.9 169.7 C 852.4 167.6 850.8 182.8 849.3 188.1 C 847.8 193.5 846.2 199.7 844.7 202.0 C 843.2 204.4 841.6 202.3 840.1 202.4 C 838.5 202.5 837.0 202.6 835.5 202.8 C 833.9 202.9 832.4 203.0 830.9 203.1 C 829.3 203.2 827.8 203.3 826.3 203.4 C 824.7 203.5 823.2 203.6 821.7 203.7 C 820.1 203.7 818.6 203.8 817.1 203.9 C 815.5 204.0 814.0 204.1 812.5 204.1 C 810.9 204.2 809.4 204.3 807.9 204.3 C 806.3 204.4 804.8 210.5 803.3 204.5 C 801.7 198.6 800.2 174.6 798.7 168.7 C 797.1 162.7 795.6 168.7 794.1 168.8 C 792.5 168.8 791.0 168.9 789.5 168.9 C 787.9 168.9 786.4 168.9 784.8 168.9 C 783.3 169.0 781.8 169.0 780.2 169.0 C 778.7 169.0 777.2 169.0 775.6 169.0 C 774.1 169.0 772.6 169.0 771.0 169.0 C 769.5 169.0 768.0 169.0 766.4 168.9 C 764.9 168.9 763.4 168.9 761.8 168.9 C 760.3 168.8 758.8 168.8 757.2 168.8 C 755.7 168.7 754.2 168.7 752.6 168.7 C 751.1 168.6 749.6 168.6 748.0 168.5 C 746.5 168.5 745.0 168.4 743.4 168.3 C 741.9 168.3 740.4 168.2 738.8 168.1 C 737.3 168.1 735.8 168.0 734.2 167.9 C 732.7 167.8 731.2 167.7 729.6 167.6 C 728.1 167.6 726.5 167.5 725.0 167.4 C 723.5 167.3 721.9 167.2 720.4 167.1 C 718.9 167.0 717.3 166.9 715.8 166.7 C 714.3 166.6 712.7 166.5 711.2 166.4 C 709.7 166.3 708.1 166.1 706.6 166.0 C 705.1 165.9 703.5 165.8 702.0 165.6 C 700.5 165.5 698.9 165.3 697.4 165.2 C 695.9 165.1 694.3 164.9 692.8 164.8 C 691.3 164.6 689.7 164.5 688.2 164.3 C 686.7 164.1 685.1 164.0 683.6 163.8 C 682.1 163.7 680.5 163.5 679.0 163.3 C 677.5 163.2 675.9 163.0 674.4 162.8 C 672.8 162.6 671.3 162.5 669.8 162.3 C 668.2 162.1 666.7 161.9 665.2 161.7 C 663.6 161.6 662.1 161.4 660.6 161.2 C 659.0 161.0 657.5 160.8 656.0 160.6 C 654.4 160.4 652.9 160.2 651.4 160.0 C 649.8 159.8 648.3 159.6 646.8 159.4 C 645.2 159.2 643.7 159.0 642.2 158.8 C 640.6 158.6 639.1 158.4 637.6 158.2 C 636.0 158.0 634.5 157.8 633.0 157.6 C 631.4 157.3 629.9 157.1 628.4 156.9 C 626.8 156.7 625.3 156.5 623.8 156.3 C 622.2 156.1 620.7 155.8 619.2 155.6 C 617.6 155.4 616.1 155.2 614.5 155.0 C 613.0 154.8 611.5 154.5 609.9 154.3 C 608.4 154.1 606.9 153.9 605.3 153.7 C 603.8 153.4 602.3 153.2 600.7 153.0 C 599.2 152.8 597.7 152.6 596.1 152.3 C 594.6 152.1 593.1 151.9 591.5 151.7 C 590.0 151.5 588.5 151.2 586.9 151.0 C 585.4 150.8 583.9 150.6 582.3 150.4 C 580.8 150.1 579.3 149.9 577.7 149.7 C 576.2 149.5 574.7 149.3 573.1 149.1 C 571.6 148.9 570.1 148.6 568.5 148.4 C 567.0 148.2 565.5 148.0 563.9 147.8 C 562.4 147.6 560.8 147.4 559.3 147.2 C 557.8 147.0 556.2 146.8 554.7 146.6 C 553.2 146.4 551.6 146.2 550.1 146.0 C 548.6 145.8 547.0 145.6 545.5 145.4 C 544.0 145.2 542.4 145.0 540.9 144.8 C 539.4 144.6 537.8 144.4 536.3 144.2 C 534.8 144.1 533.2 143.9 531.7 143.7 C 530.2 143.5 528.6 143.3 527.1 143.2 C 525.6 143.0 524.0 142.8 522.5 142.7 C 521.0 142.5 519.4 142.3 517.9 142.2 C 516.4 142.0 514.8 141.8 513.3 141.7 C 511.8 141.5 510.2 141.4 508.7 141.2 C 507.2 141.1 505.6 140.9 504.1 140.8 C 502.5 140.6 501.0 139.0 499.5 140.4 C 497.9 141.7 496.4 147.6 494.9 149.0 C 493.3 150.4 491.8 148.7 490.3 148.6 C 488.7 148.5 487.2 148.4 485.7 148.3 C 484.1 148.1 482.6 149.5 481.1 147.9 C 479.5 146.3 478.0 140.2 476.5 138.6 C 474.9 137.0 473.4 138.4 471.9 138.3 C 470.3 138.3 468.8 138.2 467.3 138.1 C 465.7 138.0 464.2 137.9 462.7 137.9 C 461.1 137.8 459.6 137.7 458.1 137.7 C 456.5 137.6 455.0 137.5 453.5 137.5 C 451.9 137.4 450.4 137.4 448.8 137.3 C 447.3 137.3 445.8 137.3 444.2 137.2 C 442.7 137.2 441.2 137.2 439.6 137.1 C 438.1 137.1 436.6 137.1 435.0 137.1 C 433.5 137.0 432.0 137.0 430.4 137.0 C 428.9 137.0 427.4 137.0 425.8 137.0 C 424.3 137.0 422.8 137.0 421.2 137.0 C 419.7 137.0 418.2 137.0 416.6 137.1 C 415.1 137.1 413.6 137.1 412.0 137.1 C 410.5 137.1 409.0 137.2 407.4 137.2 C 405.9 137.3 404.4 137.3 402.8 137.3 C 401.3 137.4 399.8 137.4 398.2 137.5 C 396.7 137.5 395.2 137.6 393.6 137.7 C 392.1 137.7 390.5 137.8 389.0 137.9 C 387.5 137.9 385.9 138.0 384.4 138.1 C 382.9 138.2 381.3 138.3 379.8 138.3 C 378.3 138.4 376.7 138.5 375.2 138.6 C 373.7 138.7 372.1 138.8 370.6 138.9 C 369.1 139.0 367.5 139.1 366.0 139.2 C 364.5 139.4 362.9 139.5 361.4 139.6 C 359.9 139.7 358.3 139.8 356.8 140.0 C 355.3 140.1 353.7 140.2 352.2 140.4 C 350.7 140.5 349.1 140.6 347.6 140.8 C 346.1 140.9 344.5 141.1 343.0 141.2 C 341.5 141.4 339.9 141.5 338.4 141.7 C 336.8 141.8 335.3 142.0 333.8 142.2 C 332.2 142.3 330.7 142.5 329.2 142.6 C 327.6 142.8 326.1 143.0 324.6 143.2 C 323.0 143.3 321.5 143.5 320.0 143.7 C 318.4 143.9 316.9 144.1 315.4 144.2 C 313.8 144.4 312.3 144.6 310.8 144.8 C 309.2 145.0 307.7 145.2 306.2 145.4 C 304.6 145.6 303.1 145.8 301.6 146.0 C 300.0 146.2 298.5 146.4 297.0 146.6 C 295.4 146.8 293.9 147.0 292.4 147.2 C 290.8 147.4 289.3 147.6 287.8 147.8 C 286.2 148.0 284.7 148.2 283.2 148.4 C 281.6 148.6 280.1 148.8 278.5 149.1 C 277.0 149.3 275.5 149.5 273.9 149.7 C 272.4 149.9 270.9 150.1 269.3 150.3 C 267.8 150.6 266.3 150.8 264.7 151.0 C 263.2 151.2 261.7 151.4 260.1 151.7 C 258.6 151.9 257.1 152.1 255.5 152.3 C 254.0 152.5 252.5 152.8 250.9 153.0 C 249.4 153.2 247.9 153.4 246.3 153.6 C 244.8 153.9 243.3 154.1 241.7 154.3 C 240.2 154.5 238.7 154.7 237.1 155.0 C 235.6 155.2 234.1 155.4 232.5 155.6 C 231.0 155.8 229.5 156.0 227.9 156.3 C 226.4 156.5 224.8 156.7 223.3 156.9 C 221.8 157.1 220.2 157.3 218.7 157.5 C 217.2 157.8 215.6 158.0 214.1 158.2 C 212.6 158.4 211.0 158.6 209.5 158.8 C 208.0 159.0 206.4 159.2 204.9 159.4 C 203.4 159.6 201.8 159.8 200.3 160.0 C 198.8 160.2 197.2 160.4 195.7 160.6 C 194.2 160.8 192.6 161.0 191.1 161.2 C 189.6 161.4 188.0 161.5 186.5 161.7 C 185.0 161.9 183.4 162.1 181.9 162.3 C 180.4 162.5 178.8 162.6 177.3 162.8 C 175.8 163.0 174.2 163.2 172.7 163.3 C 171.2 163.5 169.6 163.7 168.1 163.8 C 166.5 164.0 165.0 164.1 163.5 164.3 C 161.9 164.4 160.4 164.6 158.9 164.8 C 157.3 164.9 155.8 165.0 154.3 165.2 C 152.7 165.3 151.2 165.5 149.7 165.6 C 148.1 165.7 146.6 165.9 145.1 166.0 C 143.5 166.1 142.0 166.3 140.5 166.4 C 138.9 166.5 137.4 166.6 135.9 166.7 C 134.3 166.8 132.8 167.0 131.3 167.1 C 129.7 167.2 128.2 167.3 126.7 167.4 C 125.1 167.5 123.6 167.6 122.1 167.6 C 120.5 167.7 119.0 167.8 117.5 167.9 C 115.9 168.0 114.4 168.1 112.8 168.1 C 111.3 168.2 109.8 168.3 108.2 168.3 C 106.7 168.4 105.2 168.4 103.6 168.5 C 102.1 168.6 100.6 168.6 99.0 168.7 C 97.5 168.7 96.0 168.7 94.4 168.8 C 92.9 168.8 91.4 168.8 89.8 168.9 C 88.3 168.9 86.8 168.9 85.2 168.9 C 83.7 169.0 82.2 169.0 80.6 169.0 C 79.1 169.0 77.6 169.0 76.0 169.0 C 74.5 169.0 73.0 169.0 71.4 169.0 C 69.9 169.0 68.4 169.0 66.8 168.9 C 65.3 168.9 63.8 168.9 62.2 168.9 C 60.7 168.9 59.2 168.8 57.6 168.8 C 56.1 168.8 54.5 168.7 53.0 168.7 C 51.5 168.6 49.9 168.6 48.4 168.5 C 46.9 168.5 45.3 168.4 43.8 168.3 C 42.3 168.3 40.7 168.2 39.2 168.1 C 37.7 168.1 36.1 168.0 34.6 167.9 C 33.1 167.8 30.8 167.7 30.0 167.7 Z" fill="url(#riverGrad)" opacity="0.95"/>
  <path d="M 30.0 163.2 C 30.8 163.2 33.1 163.3 34.6 163.4 C 36.1 163.5 37.7 163.6 39.2 163.6 C 40.7 163.7 42.3 163.8 43.8 163.8 C 45.3 163.9 46.9 164.0 48.4 164.0 C 49.9 164.1 51.5 164.1 53.0 164.2 C 54.5 164.2 56.1 164.3 57.6 164.3 C 59.2 164.3 60.7 164.4 62.2 164.4 C 63.8 164.4 65.3 164.4 66.8 164.4 C 68.4 164.5 69.9 164.5 71.4 164.5 C 73.0 164.5 74.5 164.5 76.0 164.5 C 77.6 164.5 79.1 164.5 80.6 164.5 C 82.2 164.5 83.7 164.5 85.2 164.4 C 86.8 164.4 88.3 164.4 89.8 164.4 C 91.4 164.3 92.9 164.3 94.4 164.3 C 96.0 164.2 97.5 164.2 99.0 164.2 C 100.6 164.1 102.1 164.1 103.6 164.0 C 105.2 163.9 106.7 163.9 108.2 163.8 C 109.8 163.8 111.3 163.7 112.8 163.6 C 114.4 163.6 115.9 163.5 117.5 163.4 C 119.0 163.3 120.5 163.2 122.1 163.1 C 123.6 163.1 125.1 163.0 126.7 162.9 C 128.2 162.8 129.7 162.7 131.3 162.6 C 132.8 162.5 134.3 162.3 135.9 162.2 C 137.4 162.1 138.9 162.0 140.5 161.9 C 142.0 161.8 143.5 161.6 145.1 161.5 C 146.6 161.4 148.1 161.2 149.7 161.1 C 151.2 161.0 152.7 160.8 154.3 160.7 C 155.8 160.5 157.3 160.4 158.9 160.3 C 160.4 160.1 161.9 159.9 163.5 159.8 C 165.0 159.6 166.5 159.5 168.1 159.3 C 169.6 159.2 171.2 159.0 172.7 158.8 C 174.2 158.7 175.8 158.5 177.3 158.3 C 178.8 158.1 180.4 158.0 181.9 157.8 C 183.4 157.6 185.0 157.4 186.5 157.2 C 188.0 157.0 189.6 156.9 191.1 156.7 C 192.6 156.5 194.2 156.3 195.7 156.1 C 197.2 155.9 198.8 155.7 200.3 155.5 C 201.8 155.3 203.4 155.1 204.9 154.9 C 206.4 154.7 208.0 154.5 209.5 154.3 C 211.0 154.1 212.6 153.9 214.1 153.7 C 215.6 153.5 217.2 153.3 218.7 153.0 C 220.2 152.8 221.8 152.6 223.3 152.4 C 224.8 152.2 226.4 152.0 227.9 151.8 C 229.5 151.5 231.0 151.3 232.5 151.1 C 234.1 150.9 235.6 150.7 237.1 150.5 C 238.7 150.2 240.2 150.0 241.7 149.8 C 243.3 149.6 244.8 149.4 246.3 149.1 C 247.9 148.9 249.4 148.7 250.9 148.5 C 252.5 148.3 254.0 148.0 255.5 147.8 C 257.1 147.6 258.6 147.4 260.1 147.2 C 261.7 146.9 263.2 146.7 264.7 146.5 C 266.3 146.3 267.8 146.1 269.3 145.8 C 270.9 145.6 272.4 145.4 273.9 145.2 C 275.5 145.0 277.0 144.8 278.5 144.6 C 280.1 144.3 281.6 144.1 283.2 143.9 C 284.7 143.7 286.2 143.5 287.8 143.3 C 289.3 143.1 290.8 142.9 292.4 142.7 C 293.9 142.5 295.4 142.3 297.0 142.1 C 298.5 141.9 300.0 141.7 301.6 141.5 C 303.1 141.3 304.6 141.1 306.2 140.9 C 307.7 140.7 309.2 140.5 310.8 140.3 C 312.3 140.1 313.8 139.9 315.4 139.7 C 316.9 139.6 318.4 139.4 320.0 139.2 C 321.5 139.0 323.0 138.8 324.6 138.7 C 326.1 138.5 327.6 138.3 329.2 138.1 C 330.7 138.0 332.2 137.8 333.8 137.7 C 335.3 137.5 336.8 137.3 338.4 137.2 C 339.9 137.0 341.5 136.9 343.0 136.7 C 344.5 136.6 346.1 136.4 347.6 136.3 C 349.1 136.1 350.7 136.0 352.2 135.9 C 353.7 135.7 355.3 135.6 356.8 135.5 C 358.3 135.3 359.9 135.2 361.4 135.1 C 362.9 135.0 364.5 134.9 366.0 134.7 C 367.5 134.6 369.1 134.5 370.6 134.4 C 372.1 134.3 373.7 134.2 375.2 134.1 C 376.7 134.0 378.3 133.9 379.8 133.8 C 381.3 133.8 382.9 133.7 384.4 133.6 C 385.9 133.5 387.5 133.4 389.0 133.4 C 390.5 133.3 392.1 133.2 393.6 133.2 C 395.2 133.1 396.7 133.0 398.2 133.0 C 399.8 132.9 401.3 132.9 402.8 132.8 C 404.4 132.8 405.9 132.8 407.4 132.7 C 409.0 132.7 410.5 132.6 412.0 132.6 C 413.6 132.6 415.1 132.6 416.6 132.6 C 418.2 132.5 419.7 132.5 421.2 132.5 C 422.8 132.5 424.3 132.5 425.8 132.5 C 427.4 132.5 428.9 132.5 430.4 132.5 C 432.0 132.5 433.5 132.5 435.0 132.6 C 436.6 132.6 438.1 132.6 439.6 132.6 C 441.2 132.7 442.7 132.7 444.2 132.7 C 445.8 132.8 447.3 132.8 448.8 132.8 C 450.4 132.9 451.9 132.9 453.5 133.0 C 455.0 133.0 456.5 133.1 458.1 133.2 C 459.6 133.2 461.1 133.3 462.7 133.4 C 464.2 133.4 465.7 133.5 467.3 133.6 C 468.8 133.7 470.3 133.8 471.9 133.8 C 473.4 133.9 474.9 134.8 476.5 134.1 C 478.0 133.5 479.5 130.6 481.1 129.9 C 482.6 129.3 484.1 130.1 485.7 130.3 C 487.2 130.4 488.7 130.5 490.3 130.6 C 491.8 130.7 493.3 130.1 494.9 131.0 C 496.4 131.9 497.9 135.0 499.5 135.9 C 501.0 136.8 502.5 136.1 504.1 136.3 C 505.6 136.4 507.2 136.6 508.7 136.7 C 510.2 136.9 511.8 137.0 513.3 137.2 C 514.8 137.3 516.4 137.5 517.9 137.7 C 519.4 137.8 521.0 138.0 522.5 138.2 C 524.0 138.3 525.6 138.5 527.1 138.7 C 528.6 138.8 530.2 139.0 531.7 139.2 C 533.2 139.4 534.8 139.6 536.3 139.7 C 537.8 139.9 539.4 140.1 540.9 140.3 C 542.4 140.5 544.0 140.7 545.5 140.9 C 547.0 141.1 548.6 141.3 550.1 141.5 C 551.6 141.7 553.2 141.9 554.7 142.1 C 556.2 142.3 557.8 142.5 559.3 142.7 C 560.8 142.9 562.4 143.1 563.9 143.3 C 565.5 143.5 567.0 143.7 568.5 143.9 C 570.1 144.1 571.6 144.4 573.1 144.6 C 574.7 144.8 576.2 145.0 577.7 145.2 C 579.3 145.4 580.8 145.6 582.3 145.9 C 583.9 146.1 585.4 146.3 586.9 146.5 C 588.5 146.7 590.0 147.0 591.5 147.2 C 593.1 147.4 594.6 147.6 596.1 147.8 C 597.7 148.1 599.2 148.3 600.7 148.5 C 602.3 148.7 603.8 148.9 605.3 149.2 C 606.9 149.4 608.4 149.6 609.9 149.8 C 611.5 150.0 613.0 150.3 614.5 150.5 C 616.1 150.7 617.6 150.9 619.2 151.1 C 620.7 151.3 622.2 151.6 623.8 151.8 C 625.3 152.0 626.8 152.2 628.4 152.4 C 629.9 152.6 631.4 152.8 633.0 153.1 C 634.5 153.3 636.0 153.5 637.6 153.7 C 639.1 153.9 640.6 154.1 642.2 154.3 C 643.7 154.5 645.2 154.7 646.8 154.9 C 648.3 155.1 649.8 155.3 651.4 155.5 C 652.9 155.7 654.4 155.9 656.0 156.1 C 657.5 156.3 659.0 156.5 660.6 156.7 C 662.1 156.9 663.6 157.1 665.2 157.2 C 666.7 157.4 668.2 157.6 669.8 157.8 C 671.3 158.0 672.8 158.1 674.4 158.3 C 675.9 158.5 677.5 158.7 679.0 158.8 C 680.5 159.0 682.1 159.2 683.6 159.3 C 685.1 159.5 686.7 159.6 688.2 159.8 C 689.7 160.0 691.3 160.1 692.8 160.3 C 694.3 160.4 695.9 160.6 697.4 160.7 C 698.9 160.8 700.5 161.0 702.0 161.1 C 703.5 161.3 705.1 161.4 706.6 161.5 C 708.1 161.6 709.7 161.8 711.2 161.9 C 712.7 162.0 714.3 162.1 715.8 162.2 C 717.3 162.4 718.9 162.5 720.4 162.6 C 721.9 162.7 723.5 162.8 725.0 162.9 C 726.5 163.0 728.1 163.1 729.6 163.1 C 731.2 163.2 732.7 163.3 734.2 163.4 C 735.8 163.5 737.3 163.6 738.8 163.6 C 740.4 163.7 741.9 163.8 743.4 163.8 C 745.0 163.9 746.5 164.0 748.0 164.0 C 749.6 164.1 751.1 164.1 752.6 164.2 C 754.2 164.2 755.7 164.2 757.2 164.3 C 758.8 164.3 760.3 164.3 761.8 164.4 C 763.4 164.4 764.9 164.4 766.4 164.4 C 768.0 164.5 769.5 164.5 771.0 164.5 C 772.6 164.5 774.1 164.5 775.6 164.5 C 777.2 164.5 778.7 164.5 780.2 164.5 C 781.8 164.5 783.3 164.5 784.8 164.4 C 786.4 164.4 787.9 164.4 789.5 164.4 C 791.0 164.4 792.5 164.3 794.1 164.3 C 795.6 164.2 797.1 167.2 798.7 164.2 C 800.2 161.1 801.7 149.1 803.3 146.0 C 804.8 143.0 806.3 145.9 807.9 145.8 C 809.4 145.8 810.9 145.7 812.5 145.6 C 814.0 145.6 815.5 145.5 817.1 145.4 C 818.6 145.3 820.1 145.2 821.7 145.2 C 823.2 145.1 824.7 145.0 826.3 144.9 C 827.8 144.8 829.3 144.7 830.9 144.6 C 832.4 144.5 833.9 144.4 835.5 144.3 C 837.0 144.1 838.5 144.0 840.1 143.9 C 841.6 143.8 843.2 142.5 844.7 143.5 C 846.2 144.5 847.8 147.4 849.3 149.9 C 850.8 152.4 852.4 159.7 853.9 158.5 C 855.4 157.2 857.0 145.1 858.5 142.3 C 860.0 139.5 861.6 142.0 863.1 141.8 C 864.6 141.7 866.5 141.5 867.7 141.4 C 868.8 141.2 869.6 141.2 870.0 141.1 " fill="none" stroke="#ffffff" stroke-width="1.2" opacity="0.35"/><path d="M 30.0 164.7 C 30.8 164.7 33.1 164.8 34.6 164.9 C 36.1 165.0 37.7 165.1 39.2 165.1 C 40.7 165.2 42.3 165.3 43.8 165.3 C 45.3 165.4 46.9 165.5 48.4 165.5 C 49.9 165.6 51.5 165.6 53.0 165.7 C 54.5 165.7 56.1 165.8 57.6 165.8 C 59.2 165.8 60.7 165.9 62.2 165.9 C 63.8 165.9 65.3 165.9 66.8 165.9 C 68.4 166.0 69.9 166.0 71.4 166.0 C 73.0 166.0 74.5 166.0 76.0 166.0 C 77.6 166.0 79.1 166.0 80.6 166.0 C 82.2 166.0 83.7 166.0 85.2 165.9 C 86.8 165.9 88.3 165.9 89.8 165.9 C 91.4 165.8 92.9 165.8 94.4 165.8 C 96.0 165.7 97.5 165.7 99.0 165.7 C 100.6 165.6 102.1 165.6 103.6 165.5 C 105.2 165.4 106.7 165.4 108.2 165.3 C 109.8 165.3 111.3 165.2 112.8 165.1 C 114.4 165.1 115.9 165.0 117.5 164.9 C 119.0 164.8 120.5 164.7 122.1 164.6 C 123.6 164.6 125.1 164.5 126.7 164.4 C 128.2 164.3 129.7 164.2 131.3 164.1 C 132.8 164.0 134.3 163.8 135.9 163.7 C 137.4 163.6 138.9 163.5 140.5 163.4 C 142.0 163.3 143.5 163.1 145.1 163.0 C 146.6 162.9 148.1 162.7 149.7 162.6 C 151.2 162.5 152.7 162.3 154.3 162.2 C 155.8 162.0 157.3 161.9 158.9 161.8 C 160.4 161.6 161.9 161.4 163.5 161.3 C 165.0 161.1 166.5 161.0 168.1 160.8 C 169.6 160.7 171.2 160.5 172.7 160.3 C 174.2 160.2 175.8 160.0 177.3 159.8 C 178.8 159.6 180.4 159.5 181.9 159.3 C 183.4 159.1 185.0 158.9 186.5 158.7 C 188.0 158.5 189.6 158.4 191.1 158.2 C 192.6 158.0 194.2 157.8 195.7 157.6 C 197.2 157.4 198.8 157.2 200.3 157.0 C 201.8 156.8 203.4 156.6 204.9 156.4 C 206.4 156.2 208.0 156.0 209.5 155.8 C 211.0 155.6 212.6 155.4 214.1 155.2 C 215.6 155.0 217.2 154.8 218.7 154.5 C 220.2 154.3 221.8 154.1 223.3 153.9 C 224.8 153.7 226.4 153.5 227.9 153.3 C 229.5 153.0 231.0 152.8 232.5 152.6 C 234.1 152.4 235.6 152.2 237.1 152.0 C 238.7 151.7 240.2 151.5 241.7 151.3 C 243.3 151.1 244.8 150.9 246.3 150.6 C 247.9 150.4 249.4 150.2 250.9 150.0 C 252.5 149.8 254.0 149.5 255.5 149.3 C 257.1 149.1 258.6 148.9 260.1 148.7 C 261.7 148.4 263.2 148.2 264.7 148.0 C 266.3 147.8 267.8 147.6 269.3 147.3 C 270.9 147.1 272.4 146.9 273.9 146.7 C 275.5 146.5 277.0 146.3 278.5 146.1 C 280.1 145.8 281.6 145.6 283.2 145.4 C 284.7 145.2 286.2 145.0 287.8 144.8 C 289.3 144.6 290.8 144.4 292.4 144.2 C 293.9 144.0 295.4 143.8 297.0 143.6 C 298.5 143.4 300.0 143.2 301.6 143.0 C 303.1 142.8 304.6 142.6 306.2 142.4 C 307.7 142.2 309.2 142.0 310.8 141.8 C 312.3 141.6 313.8 141.4 315.4 141.2 C 316.9 141.1 318.4 140.9 320.0 140.7 C 321.5 140.5 323.0 140.3 324.6 140.2 C 326.1 140.0 327.6 139.8 329.2 139.6 C 330.7 139.5 332.2 139.3 333.8 139.2 C 335.3 139.0 336.8 138.8 338.4 138.7 C 339.9 138.5 341.5 138.4 343.0 138.2 C 344.5 138.1 346.1 137.9 347.6 137.8 C 349.1 137.6 350.7 137.5 352.2 137.4 C 353.7 137.2 355.3 137.1 356.8 137.0 C 358.3 136.8 359.9 136.7 361.4 136.6 C 362.9 136.5 364.5 136.4 366.0 136.2 C 367.5 136.1 369.1 136.0 370.6 135.9 C 372.1 135.8 373.7 135.7 375.2 135.6 C 376.7 135.5 378.3 135.4 379.8 135.3 C 381.3 135.3 382.9 135.2 384.4 135.1 C 385.9 135.0 387.5 134.9 389.0 134.9 C 390.5 134.8 392.1 134.7 393.6 134.7 C 395.2 134.6 396.7 134.5 398.2 134.5 C 399.8 134.4 401.3 134.4 402.8 134.3 C 404.4 134.3 405.9 134.3 407.4 134.2 C 409.0 134.2 410.5 134.1 412.0 134.1 C 413.6 134.1 415.1 134.1 416.6 134.1 C 418.2 134.0 419.7 134.0 421.2 134.0 C 422.8 134.0 424.3 134.0 425.8 134.0 C 427.4 134.0 428.9 134.0 430.4 134.0 C 432.0 134.0 433.5 134.0 435.0 134.1 C 436.6 134.1 438.1 134.1 439.6 134.1 C 441.2 134.2 442.7 134.2 444.2 134.2 C 445.8 134.3 447.3 134.3 448.8 134.3 C 450.4 134.4 451.9 134.4 453.5 134.5 C 455.0 134.5 456.5 134.6 458.1 134.7 C 459.6 134.7 461.1 134.8 462.7 134.9 C 464.2 134.9 465.7 135.0 467.3 135.1 C 468.8 135.2 470.3 135.3 471.9 135.3 C 473.4 135.4 474.9 135.5 476.5 135.6 C 478.0 135.7 479.5 135.8 481.1 135.9 C 482.6 136.0 484.1 136.1 485.7 136.3 C 487.2 136.4 488.7 136.5 490.3 136.6 C 491.8 136.7 493.3 136.9 494.9 137.0 C 496.4 137.1 497.9 137.2 499.5 137.4 C 501.0 137.5 502.5 137.6 504.1 137.8 C 505.6 137.9 507.2 138.1 508.7 138.2 C 510.2 138.4 511.8 138.5 513.3 138.7 C 514.8 138.8 516.4 139.0 517.9 139.2 C 519.4 139.3 521.0 139.5 522.5 139.7 C 524.0 139.8 525.6 140.0 527.1 140.2 C 528.6 140.3 530.2 140.5 531.7 140.7 C 533.2 140.9 534.8 141.1 536.3 141.2 C 537.8 141.4 539.4 141.6 540.9 141.8 C 542.4 142.0 544.0 142.2 545.5 142.4 C 547.0 142.6 548.6 142.8 550.1 143.0 C 551.6 143.2 553.2 143.4 554.7 143.6 C 556.2 143.8 557.8 144.0 559.3 144.2 C 560.8 144.4 562.4 144.6 563.9 144.8 C 565.5 145.0 567.0 145.2 568.5 145.4 C 570.1 145.6 571.6 145.9 573.1 146.1 C 574.7 146.3 576.2 146.5 577.7 146.7 C 579.3 146.9 580.8 147.1 582.3 147.4 C 583.9 147.6 585.4 147.8 586.9 148.0 C 588.5 148.2 590.0 148.5 591.5 148.7 C 593.1 148.9 594.6 149.1 596.1 149.3 C 597.7 149.6 599.2 149.8 600.7 150.0 C 602.3 150.2 603.8 150.4 605.3 150.7 C 606.9 150.9 608.4 151.1 609.9 151.3 C 611.5 151.5 613.0 151.8 614.5 152.0 C 616.1 152.2 617.6 152.4 619.2 152.6 C 620.7 152.8 622.2 153.1 623.8 153.3 C 625.3 153.5 626.8 153.7 628.4 153.9 C 629.9 154.1 631.4 154.3 633.0 154.6 C 634.5 154.8 636.0 155.0 637.6 155.2 C 639.1 155.4 640.6 155.6 642.2 155.8 C 643.7 156.0 645.2 156.2 646.8 156.4 C 648.3 156.6 649.8 156.8 651.4 157.0 C 652.9 157.2 654.4 157.4 656.0 157.6 C 657.5 157.8 659.0 158.0 660.6 158.2 C 662.1 158.4 663.6 158.6 665.2 158.7 C 666.7 158.9 668.2 159.1 669.8 159.3 C 671.3 159.5 672.8 159.6 674.4 159.8 C 675.9 160.0 677.5 160.2 679.0 160.3 C 680.5 160.5 682.1 160.7 683.6 160.8 C 685.1 161.0 686.7 161.1 688.2 161.3 C 689.7 161.5 691.3 161.6 692.8 161.8 C 694.3 161.9 695.9 162.1 697.4 162.2 C 698.9 162.3 700.5 162.5 702.0 162.6 C 703.5 162.8 705.1 162.9 706.6 163.0 C 708.1 163.1 709.7 163.3 711.2 163.4 C 712.7 163.5 714.3 163.6 715.8 163.7 C 717.3 163.9 718.9 164.0 720.4 164.1 C 721.9 164.2 723.5 164.3 725.0 164.4 C 726.5 164.5 728.1 164.6 729.6 164.6 C 731.2 164.7 732.7 164.8 734.2 164.9 C 735.8 165.0 737.3 165.1 738.8 165.1 C 740.4 165.2 741.9 165.3 743.4 165.3 C 745.0 165.4 746.5 165.5 748.0 165.5 C 749.6 165.6 751.1 165.6 752.6 165.7 C 754.2 165.7 755.7 165.7 757.2 165.8 C 758.8 165.8 760.3 165.8 761.8 165.9 C 763.4 165.9 764.9 165.9 766.4 165.9 C 768.0 166.0 769.5 166.0 771.0 166.0 C 772.6 166.0 774.1 166.0 775.6 166.0 C 777.2 166.0 778.7 166.0 780.2 166.0 C 781.8 166.0 783.3 166.0 784.8 165.9 C 786.4 165.9 787.9 165.9 789.5 165.9 C 791.0 165.9 792.5 165.8 794.1 165.8 C 795.6 165.7 797.1 165.7 798.7 165.7 C 800.2 165.6 801.7 165.6 803.3 165.5 C 804.8 165.5 806.3 165.4 807.9 165.3 C 809.4 165.3 810.9 165.2 812.5 165.1 C 814.0 165.1 815.5 165.0 817.1 164.9 C 818.6 164.8 820.1 164.7 821.7 164.7 C 823.2 164.6 824.7 164.5 826.3 164.4 C 827.8 164.3 829.3 164.2 830.9 164.1 C 832.4 164.0 833.9 163.9 835.5 163.8 C 837.0 163.6 838.5 163.5 840.1 163.4 C 841.6 163.3 843.2 163.2 844.7 163.0 C 846.2 162.9 847.8 162.8 849.3 162.6 C 850.8 162.5 852.4 162.4 853.9 162.2 C 855.4 162.1 857.0 161.9 858.5 161.8 C 860.0 161.6 861.6 161.5 863.1 161.3 C 864.6 161.2 866.5 161.0 867.7 160.9 C 868.8 160.7 869.6 160.7 870.0 160.6 " fill="none" stroke="#ffffff" stroke-width="1.2" opacity="0.5"/><path d="M 30.0 166.2 C 30.8 166.2 33.1 166.3 34.6 166.4 C 36.1 166.5 37.7 166.6 39.2 166.6 C 40.7 166.7 42.3 166.8 43.8 166.8 C 45.3 166.9 46.9 167.0 48.4 167.0 C 49.9 167.1 51.5 167.1 53.0 167.2 C 54.5 167.2 56.1 167.3 57.6 167.3 C 59.2 167.3 60.7 167.4 62.2 167.4 C 63.8 167.4 65.3 167.4 66.8 167.4 C 68.4 167.5 69.9 167.5 71.4 167.5 C 73.0 167.5 74.5 167.5 76.0 167.5 C 77.6 167.5 79.1 167.5 80.6 167.5 C 82.2 167.5 83.7 167.5 85.2 167.4 C 86.8 167.4 88.3 167.4 89.8 167.4 C 91.4 167.3 92.9 167.3 94.4 167.3 C 96.0 167.2 97.5 167.2 99.0 167.2 C 100.6 167.1 102.1 167.1 103.6 167.0 C 105.2 166.9 106.7 166.9 108.2 166.8 C 109.8 166.8 111.3 166.7 112.8 166.6 C 114.4 166.6 115.9 166.5 117.5 166.4 C 119.0 166.3 120.5 166.2 122.1 166.1 C 123.6 166.1 125.1 166.0 126.7 165.9 C 128.2 165.8 129.7 165.7 131.3 165.6 C 132.8 165.5 134.3 165.3 135.9 165.2 C 137.4 165.1 138.9 165.0 140.5 164.9 C 142.0 164.8 143.5 164.6 145.1 164.5 C 146.6 164.4 148.1 164.2 149.7 164.1 C 151.2 164.0 152.7 163.8 154.3 163.7 C 155.8 163.5 157.3 163.4 158.9 163.3 C 160.4 163.1 161.9 162.9 163.5 162.8 C 165.0 162.6 166.5 162.5 168.1 162.3 C 169.6 162.2 171.2 162.0 172.7 161.8 C 174.2 161.7 175.8 161.5 177.3 161.3 C 178.8 161.1 180.4 161.0 181.9 160.8 C 183.4 160.6 185.0 160.4 186.5 160.2 C 188.0 160.0 189.6 159.9 191.1 159.7 C 192.6 159.5 194.2 159.3 195.7 159.1 C 197.2 158.9 198.8 158.7 200.3 158.5 C 201.8 158.3 203.4 158.1 204.9 157.9 C 206.4 157.7 208.0 157.5 209.5 157.3 C 211.0 157.1 212.6 156.9 214.1 156.7 C 215.6 156.5 217.2 156.3 218.7 156.0 C 220.2 155.8 221.8 155.6 223.3 155.4 C 224.8 155.2 226.4 155.0 227.9 154.8 C 229.5 154.5 231.0 154.3 232.5 154.1 C 234.1 153.9 235.6 153.7 237.1 153.5 C 238.7 153.2 240.2 153.0 241.7 152.8 C 243.3 152.6 244.8 152.4 246.3 152.1 C 247.9 151.9 249.4 151.7 250.9 151.5 C 252.5 151.3 254.0 151.0 255.5 150.8 C 257.1 150.6 258.6 150.4 260.1 150.2 C 261.7 149.9 263.2 149.7 264.7 149.5 C 266.3 149.3 267.8 149.1 269.3 148.8 C 270.9 148.6 272.4 148.4 273.9 148.2 C 275.5 148.0 277.0 147.8 278.5 147.6 C 280.1 147.3 281.6 147.1 283.2 146.9 C 284.7 146.7 286.2 146.5 287.8 146.3 C 289.3 146.1 290.8 145.9 292.4 145.7 C 293.9 145.5 295.4 145.3 297.0 145.1 C 298.5 144.9 300.0 144.7 301.6 144.5 C 303.1 144.3 304.6 144.1 306.2 143.9 C 307.7 143.7 309.2 143.5 310.8 143.3 C 312.3 143.1 313.8 142.9 315.4 142.7 C 316.9 142.6 318.4 142.4 320.0 142.2 C 321.5 142.0 323.0 141.8 324.6 141.7 C 326.1 141.5 327.6 141.3 329.2 141.1 C 330.7 141.0 332.2 140.8 333.8 140.7 C 335.3 140.5 336.8 140.3 338.4 140.2 C 339.9 140.0 341.5 139.9 343.0 139.7 C 344.5 139.6 346.1 139.4 347.6 139.3 C 349.1 139.1 350.7 139.0 352.2 138.9 C 353.7 138.7 355.3 138.6 356.8 138.5 C 358.3 138.3 359.9 138.2 361.4 138.1 C 362.9 138.0 364.5 137.9 366.0 137.7 C 367.5 137.6 369.1 137.5 370.6 137.4 C 372.1 137.3 373.7 137.2 375.2 137.1 C 376.7 137.0 378.3 136.9 379.8 136.8 C 381.3 136.8 382.9 136.7 384.4 136.6 C 385.9 136.5 387.5 136.4 389.0 136.4 C 390.5 136.3 392.1 136.2 393.6 136.2 C 395.2 136.1 396.7 136.0 398.2 136.0 C 399.8 135.9 401.3 135.9 402.8 135.8 C 404.4 135.8 405.9 135.8 407.4 135.7 C 409.0 135.7 410.5 135.6 412.0 135.6 C 413.6 135.6 415.1 135.6 416.6 135.6 C 418.2 135.5 419.7 135.5 421.2 135.5 C 422.8 135.5 424.3 135.5 425.8 135.5 C 427.4 135.5 428.9 135.5 430.4 135.5 C 432.0 135.5 433.5 135.5 435.0 135.6 C 436.6 135.6 438.1 135.6 439.6 135.6 C 441.2 135.7 442.7 135.7 444.2 135.7 C 445.8 135.8 447.3 135.8 448.8 135.8 C 450.4 135.9 451.9 135.9 453.5 136.0 C 455.0 136.0 456.5 136.1 458.1 136.2 C 459.6 136.2 461.1 136.3 462.7 136.4 C 464.2 136.4 465.7 136.5 467.3 136.6 C 468.8 136.7 470.3 136.8 471.9 136.8 C 473.4 136.9 474.9 136.3 476.5 137.1 C 478.0 138.0 479.5 141.1 481.1 141.9 C 482.6 142.8 484.1 142.1 485.7 142.3 C 487.2 142.4 488.7 142.5 490.3 142.6 C 491.8 142.7 493.3 143.6 494.9 143.0 C 496.4 142.4 497.9 139.5 499.5 138.9 C 501.0 138.3 502.5 139.1 504.1 139.3 C 505.6 139.4 507.2 139.6 508.7 139.7 C 510.2 139.9 511.8 140.0 513.3 140.2 C 514.8 140.3 516.4 140.5 517.9 140.7 C 519.4 140.8 521.0 141.0 522.5 141.2 C 524.0 141.3 525.6 141.5 527.1 141.7 C 528.6 141.8 530.2 142.0 531.7 142.2 C 533.2 142.4 534.8 142.6 536.3 142.7 C 537.8 142.9 539.4 143.1 540.9 143.3 C 542.4 143.5 544.0 143.7 545.5 143.9 C 547.0 144.1 548.6 144.3 550.1 144.5 C 551.6 144.7 553.2 144.9 554.7 145.1 C 556.2 145.3 557.8 145.5 559.3 145.7 C 560.8 145.9 562.4 146.1 563.9 146.3 C 565.5 146.5 567.0 146.7 568.5 146.9 C 570.1 147.1 571.6 147.4 573.1 147.6 C 574.7 147.8 576.2 148.0 577.7 148.2 C 579.3 148.4 580.8 148.6 582.3 148.9 C 583.9 149.1 585.4 149.3 586.9 149.5 C 588.5 149.7 590.0 150.0 591.5 150.2 C 593.1 150.4 594.6 150.6 596.1 150.8 C 597.7 151.1 599.2 151.3 600.7 151.5 C 602.3 151.7 603.8 151.9 605.3 152.2 C 606.9 152.4 608.4 152.6 609.9 152.8 C 611.5 153.0 613.0 153.3 614.5 153.5 C 616.1 153.7 617.6 153.9 619.2 154.1 C 620.7 154.3 622.2 154.6 623.8 154.8 C 625.3 155.0 626.8 155.2 628.4 155.4 C 629.9 155.6 631.4 155.8 633.0 156.1 C 634.5 156.3 636.0 156.5 637.6 156.7 C 639.1 156.9 640.6 157.1 642.2 157.3 C 643.7 157.5 645.2 157.7 646.8 157.9 C 648.3 158.1 649.8 158.3 651.4 158.5 C 652.9 158.7 654.4 158.9 656.0 159.1 C 657.5 159.3 659.0 159.5 660.6 159.7 C 662.1 159.9 663.6 160.1 665.2 160.2 C 666.7 160.4 668.2 160.6 669.8 160.8 C 671.3 161.0 672.8 161.1 674.4 161.3 C 675.9 161.5 677.5 161.7 679.0 161.8 C 680.5 162.0 682.1 162.2 683.6 162.3 C 685.1 162.5 686.7 162.6 688.2 162.8 C 689.7 163.0 691.3 163.1 692.8 163.3 C 694.3 163.4 695.9 163.6 697.4 163.7 C 698.9 163.8 700.5 164.0 702.0 164.1 C 703.5 164.3 705.1 164.4 706.6 164.5 C 708.1 164.6 709.7 164.8 711.2 164.9 C 712.7 165.0 714.3 165.1 715.8 165.2 C 717.3 165.4 718.9 165.5 720.4 165.6 C 721.9 165.7 723.5 165.8 725.0 165.9 C 726.5 166.0 728.1 166.1 729.6 166.1 C 731.2 166.2 732.7 166.3 734.2 166.4 C 735.8 166.5 737.3 166.6 738.8 166.6 C 740.4 166.7 741.9 166.8 743.4 166.8 C 745.0 166.9 746.5 167.0 748.0 167.0 C 749.6 167.1 751.1 167.1 752.6 167.2 C 754.2 167.2 755.7 167.2 757.2 167.3 C 758.8 167.3 760.3 167.3 761.8 167.4 C 763.4 167.4 764.9 167.4 766.4 167.4 C 768.0 167.5 769.5 167.5 771.0 167.5 C 772.6 167.5 774.1 167.5 775.6 167.5 C 777.2 167.5 778.7 167.5 780.2 167.5 C 781.8 167.5 783.3 167.5 784.8 167.4 C 786.4 167.4 787.9 167.4 789.5 167.4 C 791.0 167.4 792.5 167.3 794.1 167.3 C 795.6 167.2 797.1 164.2 798.7 167.2 C 800.2 170.1 801.7 182.1 803.3 185.0 C 804.8 188.0 806.3 184.9 807.9 184.8 C 809.4 184.8 810.9 184.7 812.5 184.6 C 814.0 184.6 815.5 184.5 817.1 184.4 C 818.6 184.3 820.1 184.2 821.7 184.2 C 823.2 184.1 824.7 184.0 826.3 183.9 C 827.8 183.8 829.3 183.7 830.9 183.6 C 832.4 183.5 833.9 183.4 835.5 183.3 C 837.0 183.1 838.5 183.0 840.1 182.9 C 841.6 182.8 843.2 183.8 844.7 182.5 C 846.2 181.3 847.8 178.2 849.3 175.4 C 850.8 172.6 852.4 165.0 853.9 166.0 C 855.4 167.0 857.0 178.8 858.5 181.3 C 860.0 183.8 861.6 181.0 863.1 180.8 C 864.6 180.7 866.5 180.5 867.7 180.4 C 868.8 180.2 869.6 180.2 870.0 180.1 " fill="none" stroke="#ffffff" stroke-width="1.2" opacity="0.35"/>
  <circle cx="481.1" cy="135.9" r="10.0" fill="#7ef9ff" opacity="0.18"/><circle cx="481.1" cy="135.9" r="6.0" fill="#e8feff" opacity="0.9"/><circle cx="803.3" cy="165.5" r="10.0" fill="#7ef9ff" opacity="0.18"/><circle cx="803.3" cy="165.5" r="6.0" fill="#e8feff" opacity="0.9"/><circle cx="826.3" cy="164.4" r="10.0" fill="#7ef9ff" opacity="0.18"/><circle cx="826.3" cy="164.4" r="6.0" fill="#e8feff" opacity="0.9"/><circle cx="849.3" cy="162.6" r="10.0" fill="#7ef9ff" opacity="0.18"/><circle cx="849.3" cy="162.6" r="6.0" fill="#e8feff" opacity="0.9"/>
  <text x="30.0" y="306" text-anchor="middle" font-family="Segoe UI, sans-serif" font-size="11" fill="#7d8590">Jul</text><text x="76.0" y="306" text-anchor="middle" font-family="Segoe UI, sans-serif" font-size="11" fill="#7d8590">Aug</text><text x="145.1" y="306" text-anchor="middle" font-family="Segoe UI, sans-serif" font-size="11" fill="#7d8590">Sep</text><text x="214.1" y="306" text-anchor="middle" font-family="Segoe UI, sans-serif" font-size="11" fill="#7d8590">Oct</text><text x="287.8" y="306" text-anchor="middle" font-family="Segoe UI, sans-serif" font-size="11" fill="#7d8590">Nov</text><text x="356.8" y="306" text-anchor="middle" font-family="Segoe UI, sans-serif" font-size="11" fill="#7d8590">Dec</text><text x="425.8" y="306" text-anchor="middle" font-family="Segoe UI, sans-serif" font-size="11" fill="#7d8590">Jan</text><text x="499.5" y="306" text-anchor="middle" font-family="Segoe UI, sans-serif" font-size="11" fill="#7d8590">Feb</text><text x="563.9" y="306" text-anchor="middle" font-family="Segoe UI, sans-serif" font-size="11" fill="#7d8590">Mar</text><text x="633.0" y="306" text-anchor="middle" font-family="Segoe UI, sans-serif" font-size="11" fill="#7d8590">Apr</text><text x="702.0" y="306" text-anchor="middle" font-family="Segoe UI, sans-serif" font-size="11" fill="#7d8590">May</text><text x="775.6" y="306" text-anchor="middle" font-family="Segoe UI, sans-serif" font-size="11" fill="#7d8590">Jun</text><text x="844.7" y="306" text-anchor="middle" font-family="Segoe UI, sans-serif" font-size="11" fill="#7d8590">Jul</text>
  <text x="450.0" y="282" text-anchor="middle" font-family="Segoe UI, sans-serif" font-size="13" fill="#8b949e">119 contributions this year &#8226; 3 day streak</text>
</svg>